<svg width="64" height="64" version="1.1" viewBox="0 0 64 64" xml:space="preserve" xmlns="http://www.w3.org/2000/svg"><path d="m7 23.203v24.865c0 2.77 2.23 5 5 5h40c2.77 0 5-2.23 5-5v-24.865h-50zm21.188 6.4668c1.2223 0.060725 2.4881 0.58991 3.5625 1.6641l0.29297 0.29297 0.29492-0.29297c2.1086-2.1095 5.5536-2.1095 7.6621 0 2.1095 2.1086 2.1095 5.5536 0 7.6621l-0.88477 0.88281-6.4824 6.4844a0.83342 0.83342 0 0 1-1.1777 0l-6.4824-6.4844-0.88476-0.88281c-1.2279-1.2276-1.7432-2.7046-1.6621-4.082 0.081037-1.3775 0.72076-2.6387 1.6621-3.5801s2.2025-1.579 3.5801-1.6602c0.17219-0.010149 0.34492-0.012581 0.51953-0.003906zm-0.076172 1.6641c-0.11583-0.004742-0.23087-0.004815-0.3457 0.001954-0.91864 0.054145-1.8205 0.49825-2.5 1.1777s-1.1198 1.5796-1.1738 2.498c-0.054033 0.91844 0.24062 1.8737 1.1738 2.8066l0.88477 0.88086 5.8926 5.8965 5.8945-5.8965 0.88281-0.88086c1.4723-1.4716 1.4723-3.835 0-5.3066-1.4716-1.4723-3.8311-1.4723-5.3027 0l-0.88477 0.88281a0.83342 0.83342 0 0 1-1.1777 0l-0.88477-0.88281c-0.81655-0.81635-1.6482-1.1445-2.459-1.1777z" fill="primary"/><path d="m26.395 10.932c1.662 0 3 1.338 3 3v2.7501h20.605c2.77 0 5 2.23 5 5v0.5918h-46v-8.3419c0-1.662 1.338-3 3-3z" fill="secondary"/></svg>
