<svg width="64" height="64" version="1.1" viewBox="0 0 64 64" xml:space="preserve" xmlns="http://www.w3.org/2000/svg"><path d="m7 23.203v24.865c0 2.77 2.23 5 5 5h40c2.77 0 5-2.23 5-5v-24.865h-50zm25 5.7656c5.0527 0 9.166 4.1133 9.166 9.166s-4.1133 9.168-9.166 9.168-9.166-4.1152-9.166-9.168 4.1133-9.166 9.166-9.166zm0 1.666c-4.152 0-7.5 3.348-7.5 7.5s3.348 7.5 7.5 7.5 7.5-3.348 7.5-7.5-3.348-7.5-7.5-7.5zm0 4.168c1.8311 0 3.334 1.501 3.334 3.332s-1.5029 3.334-3.334 3.334-3.334-1.5029-3.334-3.334 1.5029-3.332 3.334-3.332zm0 1.666c-0.93034 0-1.666 0.73567-1.666 1.666s0.73567 1.668 1.666 1.668 1.666-0.73762 1.666-1.668-0.73567-1.666-1.666-1.666z" fill="primary"/><path d="m26.395 10.932c1.662 0 3 1.338 3 3v2.7501h20.605c2.77 0 5 2.23 5 5v0.5918h-46v-8.3419c0-1.662 1.338-3 3-3z" fill="secondary"/></svg>
