<svg width="64" height="64" version="1.1" viewBox="0 0 64 64" xml:space="preserve" xmlns="http://www.w3.org/2000/svg"><path d="m7 24.016v24.865c0 2.77 2.23 5 5 5h40c2.77 0 5-2.23 5-5v-24.865h-50zm23.334 6.5996h3.332c1.3708 0 2.5 1.1292 2.5 2.5v0.83203h2.5c1.3706 0 2.5 1.1294 2.5 2.5v8.334c0 1.3706-1.1294 2.5-2.5 2.5h-3.332-0.001953-6.6641-0.001953-3.332c-1.3706 0-2.5-1.1294-2.5-2.5v-8.334c0-1.3706 1.1294-2.5 2.5-2.5h2.5v-0.83203c0-1.3708 1.1292-2.5 2.5-2.5zm0 1.666c-0.47011 1e-6 -0.83398 0.36388-0.83398 0.83398v0.83203h5v-0.83203c0-0.47011-0.36388-0.83398-0.83398-0.83398h-3.332zm-5 3.334c-0.47608 0-0.83398 0.35595-0.83398 0.83203v8.334c0 0.47608 0.3579 0.83398 0.83398 0.83398h2.5v-10h-2.5zm4.166 0v10h5v-10h-5zm6.666 0v10h2.5c0.47608 0 0.83398-0.3579 0.83398-0.83398v-8.334c0-0.47608-0.3579-0.83203-0.83398-0.83203h-2.5z" fill="primary"/><path d="m26.395 11.746c1.662 0 3 1.338 3 3v2.7501h20.605c2.77 0 5 2.23 5 5v0.5918h-46v-8.3419c0-1.662 1.338-3 3-3z" fill="secondary"/></svg>
