<svg width="64" height="64" version="1.1" viewBox="0 0 64 64" xml:space="preserve" xmlns="http://www.w3.org/2000/svg"><path d="m7 24.016v24.865c0 2.77 2.23 5 5 5h40c2.77 0 5-2.23 5-5v-24.865h-50zm24.996 10.766c2.0077 0 3.695 1.442 4.082 3.3398a0.83333 0.83333 0 0 1 0.091797-0.007813h4.959a0.83333 0.83333 0 0 1 0.83398 0.83398 0.83333 0.83333 0 0 1-0.83398 0.83594h-4.959a0.83333 0.83333 0 0 1-0.091797-0.005859c-0.38704 1.8978-2.0743 3.3379-4.082 3.3379-2.0074-1e-6 -3.6947-1.4385-4.082-3.3359a0.83333 0.83333 0 0 1-0.083984 0.001953h-4.959a0.83333 0.83333 0 0 1-0.83398-0.83398 0.83333 0.83333 0 0 1 0.83398-0.83203h4.959a0.83333 0.83333 0 0 1 0.083984 0.001954c0.38736-1.8974 2.0746-3.3359 4.082-3.3359zm0 1.666c-1.3906 0-2.5 1.1094-2.5 2.5s1.1094 2.5 2.5 2.5c1.3906 0 2.5-1.1094 2.5-2.5s-1.1094-2.5-2.5-2.5z" fill="primary"/><path d="m26.395 11.746c1.662 0 3 1.338 3 3v2.7501h20.605c2.77 0 5 2.23 5 5v0.5918h-46v-8.3419c0-1.662 1.338-3 3-3z" fill="secondary"/></svg>
