<svg width="64" height="64" version="1.1" viewBox="0 0 64 64" xml:space="preserve" xmlns="http://www.w3.org/2000/svg"><path d="m7 24.016v24.865c0 2.77 2.23 5 5 5h40c2.77 0 5-2.23 5-5v-24.865h-50zm23.75 8.6836a3.1245 3.1245 0 0 1 2.9277 2.0352 3.1245 3.1245 0 0 1 2.0723-0.78516 3.1245 3.1245 0 0 1 3.123 3.125 3.1245 3.1245 0 0 1-0.10352 0.80273 3.7494 3.7494 0 0 1 2.6035 3.5703 3.7494 3.7494 0 0 1-3.748 3.75 3.7494 3.7494 0 0 1-2.8613-1.3242 4.9992 4.9992 0 0 1-3.3887 1.3242 4.9992 4.9992 0 0 1-3.1973-1.1562 3.1245 3.1245 0 0 1-2.4277 1.1562 3.1245 3.1245 0 0 1-3.123-3.125 3.1245 3.1245 0 0 1 1.4531-2.6387 3.1245 3.1245 0 0 1-0.20312-1.1094 3.1245 3.1245 0 0 1 3.123-3.125 3.1245 3.1245 0 0 1 0.67383 0.072265 3.1245 3.1245 0 0 1 3.0762-2.5723z" fill="primary"/><path d="m26.395 11.746c1.662 0 3 1.338 3 3v2.7501h20.605c2.77 0 5 2.23 5 5v0.5918h-46v-8.3419c0-1.662 1.338-3 3-3z" fill="secondary"/></svg>
