<svg width="64" height="64" version="1.1" viewBox="0 0 64 64" xml:space="preserve" xmlns="http://www.w3.org/2000/svg"><path d="m7 24.016v24.865c0 2.77 2.23 5 5 5h40c2.77 0 5-2.23 5-5v-24.865h-50zm24.93 5.7656c2.1694-0.03166 4.4269 1.326 4.9707 4.0039a0.83333 0.83333 0 0 1-0.65039 0.98242 0.83333 0.83333 0 0 1-0.98242-0.65039c-0.42048-2.0708-2.0203-2.8123-3.6035-2.6523-1.5832 0.15992-3 1.2053-2.998 3.3184a0.83342 0.83342 0 0 0 0 0.001953v2.5h9.168c1.3706 0 2.5 1.1294 2.5 2.5v5.832c0 1.3706-1.1294 2.5-2.5 2.5h-11.668c-1.3706 0-2.5-1.1294-2.5-2.5v-5.832c0-1.3706 1.1294-2.5 2.5-2.5h0.83398v-2.5c-0.00293-2.9147 2.2051-4.7469 4.498-4.9785 0.14331-0.01448 0.28701-0.023291 0.43164-0.025391zm-5.7637 9.1699c-0.47609 0-0.83203 0.3579-0.83203 0.83398v5.832c0 0.47608 0.35594 0.83398 0.83203 0.83398h11.668c0.47609 0 0.83203-0.3579 0.83203-0.83398v-5.832c0-0.47608-0.35594-0.83398-0.83203-0.83398h-10-0.001953-1.666z" fill="primary"/><path d="m26.395 11.746c1.662 0 3 1.338 3 3v2.7501h20.605c2.77 0 5 2.23 5 5v0.5918h-46v-8.3419c0-1.662 1.338-3 3-3z" fill="secondary"/></svg>
