<svg width="64" height="64" version="1.1" viewBox="0 0 64 64" xml:space="preserve" xmlns="http://www.w3.org/2000/svg"><path d="m7 24.016v24.865c0 2.77 2.23 5 5 5h40c2.77 0 5-2.23 5-5v-24.865h-50zm25 5.7656c5.0527 0 9.166 4.1133 9.166 9.166 0 5.0527-4.1133 9.168-9.166 9.168s-9.166-4.1152-9.166-9.168c0-5.0527 4.1133-9.166 9.166-9.166zm0 1.666c-4.152 0-7.5 3.348-7.5 7.5s3.348 7.5 7.5 7.5 7.5-3.348 7.5-7.5-3.348-7.5-7.5-7.5zm0 3.334a0.83333 0.83333 0 0 1 0.83398 0.83203v3.334a0.83333 0.83333 0 0 1-0.83398 0.83398 0.83333 0.83333 0 0 1-0.83398-0.83398v-3.334a0.83333 0.83333 0 0 1 0.83398-0.83203zm0 6.666h0.007812a0.83333 0.83333 0 0 1 0.83398 0.83398 0.83333 0.83333 0 0 1-0.83398 0.83203h-0.007812a0.83333 0.83333 0 0 1-0.83398-0.83203 0.83333 0.83333 0 0 1 0.83398-0.83398z" fill="primary"/><path d="m26.395 11.746c1.662 0 3 1.338 3 3v2.7501h20.605c2.77 0 5 2.23 5 5v0.5918h-46v-8.3419c0-1.662 1.338-3 3-3z" fill="secondary"/></svg>
