<svg width="64" height="64" version="1.1" viewBox="0 0 64 64" xml:space="preserve" xmlns="http://www.w3.org/2000/svg"><path d="m7 23.203v24.865c0 2.77 2.23 5 5 5h40c2.77 0 5-2.23 5-5v-24.865h-50zm25 6.5996a0.83333 0.83333 0 0 1 0.83398 0.83203v7.9902l2.7441-2.7441a0.83333 0.83333 0 0 1 1.1777 0 0.83333 0.83333 0 0 1 0 1.1777l-4.166 4.168a0.83342 0.83342 0 0 1-0.021485 0.019532 0.83333 0.83333 0 0 1-0.56836 0.22461 0.83333 0.83333 0 0 1-0.30469-0.060547 0.83342 0.83342 0 0 1-0.017578-0.007812 0.83333 0.83333 0 0 1-0.24609-0.1582 0.83342 0.83342 0 0 1-0.021485-0.017579l-4.166-4.1699a0.83333 0.83333 0 0 1 0-1.1758 0.83333 0.83333 0 0 1 0.58984-0.24609 0.83333 0.83333 0 0 1 0.58789 0.24609l2.7441 2.7422v-7.9883a0.83333 0.83333 0 0 1 0.83398-0.83203zm-7.5 10a0.83333 0.83333 0 0 1 0.83398 0.83203v3.334c0 0.47011 0.36192 0.83398 0.83203 0.83398h11.668c0.47011 1e-6 0.83203-0.36388 0.83203-0.83398v-3.334a0.83333 0.83333 0 0 1 0.83398-0.83203 0.83333 0.83333 0 0 1 0.83398 0.83203v3.334c0 1.3708-1.1292 2.5-2.5 2.5h-11.668c-1.3709 3e-6 -2.5-1.1292-2.5-2.5v-3.334a0.83333 0.83333 0 0 1 0.83398-0.83203z" fill="primary"/><path d="m26.395 10.932c1.662 0 3 1.338 3 3v2.7501h20.605c2.77 0 5 2.23 5 5v0.5918h-46v-8.3419c0-1.662 1.338-3 3-3z" fill="secondary"/></svg>
