<svg width="64" height="64" version="1.1" viewBox="0 0 64 64" xml:space="preserve" xmlns="http://www.w3.org/2000/svg"><path d="m5.0619 23.203 1.9381 24.865c0.21525 2.7616 2.23 5 5 5h40c2.77 0 5-2.23 5-5l2.0801-24.865zm28.571 5.7656h0.0332c0.03659 2e-4 0.07313 0.0028 0.10938 0.0078 2e-3 -7e-6 0.0039-7e-6 0.0059 0 0.01243 0.0023 0.0248 0.0049 0.03711 0.0078 0.02496 0.0041 0.04973 0.0093 0.07422 0.01563 0.03118 0.0086 0.06183 0.01906 0.0918 0.03125 0.0013 6.48e-4 0.0026 0.0013 0.0039 2e-3 0.0253 0.01049 0.05007 0.02222 0.07422 0.03516 0.0072 0.0038 0.01438 0.0077 0.02148 0.01172 0.0013 6.48e-4 0.0026 0.0013 0.0039 2e-3 0.01941 0.01224 0.03831 0.02527 0.05664 0.03906 0.0099 0.0063 0.01967 0.01281 0.0293 0.01953 0.0066 0.0058 0.01311 0.01162 0.01953 0.01758 0.02173 0.01718 0.04259 0.03543 0.0625 0.05469 0.0073 7e-3 0.01445 0.01419 0.02148 0.02148l4.9785 4.9785c4e-3 0.0045 0.0079 0.0091 0.01172 0.01367 0.02069 0.02108 0.04025 0.04325 0.05859 0.06641 6.54e-4 0.0013 0.0013 0.0026 2e-3 0.0039 0.0026 0.0039 0.0052 0.0078 0.0078 0.01172 0.01753 0.02322 0.03383 0.04734 0.04883 0.07227 0.0013 0.0019 0.0026 0.0039 0.0039 0.0059 0.01523 0.02721 0.02893 0.05524 0.04102 0.08398 2e-3 0.0045 0.0039 0.0091 0.0059 0.01367 0.0042 0.01228 0.0081 0.02465 0.01172 0.03711 0.0087 0.0218 0.01656 0.04395 0.02344 0.06641 0.0093 0.03337 0.01644 0.06729 0.02148 0.10156 3e-6 0.0013 3e-6 0.0026 0 0.0039 5e-3 0.03625 0.0076 0.07278 0.0078 0.10938v10c0 1.3708-1.1292 2.5-2.5 2.5h-10c-1.3708 2e-6 -2.5-1.1292-2.5-2.5v-13.332c0-1.3708 1.1292-2.5 2.5-2.5zm-6.6328 1.668c-0.47011-1e-6 -0.83398 0.36388-0.83398 0.83398v13.332c0 0.47011 0.36387 0.83399 0.83398 0.83398h10c0.47011 1e-6 0.83398-0.36388 0.83398-0.83398v-9.166h-4.168c-0.45996-7.64e-4 -0.83235-0.37402-0.83203-0.83398v-4.166zm7.5 1.1777v2.1562h2.1562zm-5.834 2.9883h1.668c0.45998 7.18e-4 0.83239 0.374 0.83203 0.83398 3.6e-4 0.45998-0.37205 0.83327-0.83203 0.83398h-1.668c-0.45998-7.18e-4 -0.83239-0.374-0.83203-0.83398-3.6e-4 -0.45998 0.37205-0.83327 0.83203-0.83398zm0 3.334h6.668c0.45998 7.19e-4 0.83239 0.374 0.83203 0.83398-7.18e-4 0.45922-0.37281 0.83131-0.83203 0.83203h-6.668c-0.45922-7.17e-4 -0.83131-0.37281-0.83203-0.83203-3.59e-4 -0.45998 0.37205-0.83326 0.83203-0.83398zm0 3.334h6.668c0.45922 7.17e-4 0.83131 0.37281 0.83203 0.83203 3.59e-4 0.45998-0.37205 0.83327-0.83203 0.83398h-6.668c-0.45998-7.19e-4 -0.83239-0.374-0.83203-0.83398 7.18e-4 -0.45922 0.37281-0.83131 0.83203-0.83203z" fill="primary"/><path d="m26.395 10.932c1.662 0 3 1.338 3 3v2.7501h20.605c2.77 0 5 2.23 5 5v0.5918h-46v-8.3419c0-1.662 1.338-3 3-3z" fill="secondary"/></svg>
