<svg width="64" height="64" version="1.1" viewBox="0 0 64 64" xml:space="preserve" xmlns="http://www.w3.org/2000/svg"><path d="m7 24.016v24.865c0 2.77 2.23 5 5 5h40c2.77 0 5-2.23 5-5v-24.865h-50zm29.5 8.4316c1.933 0 3.5 1.567 3.5 3.5-3e-3 1.5991-1.0887 2.9932-2.6387 3.3867l-4.377 2.832c0.0097 0.094 0.014925 0.18625 0.015625 0.28125 0 1.657-1.3431 3-3 3-1.6568 0-3-1.343-3-3 2e-4 -0.069 0.002813-0.13608 0.007812-0.20508l-3.0078-1.7363v-3.4648l4.6934 2.709c0.4071-0.1982 0.85384-0.30173 1.3066-0.30273 0.1908 8e-4 0.38106 0.01974 0.56836 0.05664l2.4785-4.1152c0.2739-1.6946 1.7361-2.9404 3.4531-2.9414zm0 1c-1.381 0-2.5 1.1193-2.5 2.5s1.119 2.5 2.5 2.5 2.5-1.1193 2.5-2.5-1.119-2.5-2.5-2.5zm0 1c0.828 0 1.5 0.6716 1.5 1.5s-0.672 1.5-1.5 1.5-1.5-0.6716-1.5-1.5 0.672-1.5 1.5-1.5zm-6.5 6c-0.0306 1e-3 -0.061197 0.003859-0.091797 0.005859l0.33789 0.19336c0.7197 0.416 0.96433 1.3288 0.54883 2.0488-0.4155 0.72-1.3291 0.96578-2.0488 0.55078l-0.70508-0.4082c0.1853 0.935 1.0054 1.6084 1.959 1.6094 1.1046 0 2-0.895 2-2s-0.8954-2-2-2z" fill="primary"/><path d="m26.395 11.746c1.662 0 3 1.338 3 3v2.7501h20.605c2.77 0 5 2.23 5 5v0.5918h-46v-8.3419c0-1.662 1.338-3 3-3z" fill="secondary"/></svg>
