<svg width="64" height="64" version="1.1" viewBox="0 0 64 64" xml:space="preserve" xmlns="http://www.w3.org/2000/svg"><path d="m7 24.016v24.865c0 2.77 2.23 5 5 5h40c2.77 0 5-2.23 5-5v-24.865h-50zm23.906 7.7324c2.6966 0 2.8545 2.0636 4.3008 2.4746-0.038308-1.37e-4 -0.076694-1.37e-4 -0.11523 0-1.4998 0.029075-3.1252 0.26137-4.7285 0.67383-1.8933 0.48757-3.6768 1.2075-5.123 2.0684 0.067796-0.042312 0.10997-0.08211 0.18555-0.125 2.193-1.1786 1.1972-5.0918 5.4805-5.0918zm4.668 3.5605c3.2743-0.063758 5.5745 0.83975 5.9961 2.3555 0.39796 1.4477-0.97703 3.2361-3.625 4.7207-0.22639-1.1029-1.145-1.7446-2.123-2.0391-1.0403-0.31322-2.2861-0.32707-3.6152-0.044922-1.3292 0.28215-2.5115 0.81164-3.4316 1.541-0.92013 0.72937-1.7051 1.8061-1.5625 3.043 0.0011 0.00989 0.002706 0.017443 0.003906 0.027343-2.642-0.157-4.4152-1.0189-4.7832-2.3262-0.63874-2.2878 3.1278-5.2457 8.4121-6.6055 1.6033-0.41246 3.2288-0.6428 4.7285-0.67188zm-1.5723 6.0215a2.239 4.3091 76.001 0 1 2.8066 1.5137 2.239 4.3091 76.001 0 1-3.9473 3.1328 2.239 4.3091 76.001 0 1-4.4688-1.3438 2.239 4.3091 76.001 0 1 3.9512-3.1328 2.239 4.3091 76.001 0 1 1.6582-0.16992z" fill="primary"/><path d="m26.395 11.746c1.662 0 3 1.338 3 3v2.7501h20.605c2.77 0 5 2.23 5 5v0.5918h-46v-8.3419c0-1.662 1.338-3 3-3z" fill="secondary"/></svg>
