<svg width="64" height="64" version="1.1" viewBox="0 0 64 64" xml:space="preserve" xmlns="http://www.w3.org/2000/svg"><path d="m5.1195 23.203 1.8805 24.865c0.20889 2.7621 2.23 5 5 5h40c2.77 0 5-2.23 5-5l2.1038-24.865zm26.88 6.5996c0.45998-3.59e-4 0.83326 0.37205 0.83398 0.83203v7.9902l2.7441-2.7441c0.32535-0.32492 0.85239-0.32492 1.1777 0 0.32492 0.32535 0.32492 0.85239 0 1.1777l-4.166 4.168c-7e-3 0.0066-0.01421 0.01315-0.02148 0.01953-0.15418 0.14414-0.3573 0.22442-0.56836 0.22461-0.10446-9.07e-4 -0.20782-0.02145-0.30469-0.06055-0.0059-0.0025-0.01175-0.0051-0.01758-0.0078-0.09072-0.03781-0.17403-0.09137-0.24609-0.1582-0.0073-0.0057-0.01442-0.0116-0.02148-0.01758l-4.166-4.1699c-0.32362-0.32512-0.32362-0.85066 0-1.1758 0.15609-0.15716 0.36834-0.24572 0.58984-0.24609 0.22083 8.96e-4 0.43228 0.08941 0.58789 0.24609l2.7441 2.7422v-7.9883c7.16e-4 -0.45998 0.374-0.83239 0.83398-0.83203zm-7.5 10c0.45998-3.59e-4 0.83326 0.37205 0.83398 0.83203v3.334c0 0.47011 0.36192 0.83398 0.83203 0.83398h11.668c0.47011 1e-6 0.83203-0.36388 0.83203-0.83398v-3.334c7.19e-4 -0.45998 0.374-0.83239 0.83398-0.83203 0.45998-3.59e-4 0.83326 0.37205 0.83398 0.83203v3.334c0 1.3708-1.1292 2.5-2.5 2.5h-11.668c-1.3709 3e-6 -2.5-1.1292-2.5-2.5v-3.334c7.19e-4 -0.45998 0.374-0.83239 0.83398-0.83203z" fill="primary"/><path d="m26.395 10.932c1.662 0 3 1.338 3 3v2.7501h20.605c2.77 0 5 2.23 5 5v0.5918h-46v-8.3419c0-1.662 1.338-3 3-3z" fill="secondary"/></svg>
