<svg width="64" height="64" version="1.1" viewBox="0 0 64 64" xml:space="preserve" xmlns="http://www.w3.org/2000/svg"><path d="m7 24.016v24.865c0 2.77 2.23 5 5 5h40c2.77 0 5-2.23 5-5v-24.865h-50zm17.5 6.5996h5.834a0.83342 0.83342 0 0 1 0.83203 0.83203v5.834a0.83342 0.83342 0 0 1-0.83203 0.83398h-5.834a0.83342 0.83342 0 0 1-0.83398-0.83398v-5.834a0.83342 0.83342 0 0 1 0.83398-0.83203zm9.166 0h5.834a0.83342 0.83342 0 0 1 0.83398 0.83203v5.834a0.83342 0.83342 0 0 1-0.83398 0.83398h-5.834a0.83342 0.83342 0 0 1-0.83203-0.83398v-5.834a0.83342 0.83342 0 0 1 0.83203-0.83203zm-8.332 1.666v4.166h4.166v-4.166h-4.166zm9.166 0v4.166h4.166v-4.166h-4.166zm-10 7.5h5.834a0.83342 0.83342 0 0 1 0.83203 0.83398v5.832a0.83342 0.83342 0 0 1-0.83203 0.83398h-5.834a0.83342 0.83342 0 0 1-0.83398-0.83398v-5.832a0.83342 0.83342 0 0 1 0.83398-0.83398zm9.166 0h5.834a0.83342 0.83342 0 0 1 0.83398 0.83398v5.832a0.83342 0.83342 0 0 1-0.83398 0.83398h-5.834a0.83342 0.83342 0 0 1-0.83203-0.83398v-5.832a0.83342 0.83342 0 0 1 0.83203-0.83398zm-8.332 1.666v4.168h4.166v-4.168h-4.166zm9.166 0v4.168h4.166v-4.168h-4.166z" fill="primary"/><path d="m26.395 11.746c1.662 0 3 1.338 3 3v2.7501h20.605c2.77 0 5 2.23 5 5v0.5918h-46v-8.3419c0-1.662 1.338-3 3-3z" fill="secondary"/></svg>
