<svg width="64" height="64" version="1.1" viewBox="0 0 64 64" xml:space="preserve" xmlns="http://www.w3.org/2000/svg"><path d="m7 23.203v24.865c0 2.77 2.23 5 5 5h40c2.77 0 5-2.23 5-5v-24.865h-50zm19.811 9.877c1.6056 0 2.8737 0.65937 3.8105 1.5781 0.54099 0.53016 0.98095 1.1373 1.3789 1.7578 0.39798-0.62045 0.83719-1.2277 1.3789-1.7578 0.93652-0.91829 2.2048-1.5781 3.8105-1.5781 0.64139 0 1.2786 0.12827 1.873 0.37891 0.59444 0.25136 1.1378 0.62129 1.5957 1.0879 0.45576 0.46516 0.82235 1.0218 1.0723 1.6328l0.003906 0.007812c0.2498 0.61481 0.37695 1.2777 0.37695 1.9453 0 0.6674-0.12776 1.3306-0.37695 1.9453-0.24912 0.61293-0.61598 1.1685-1.0723 1.6348l-0.003906 0.005859c-0.45808 0.4671-1.0013 0.83688-1.5957 1.0879-0.58086 0.24529-1.2033 0.37351-1.8301 0.37891-0.01481 6.92e-4 -0.028239-5.35e-4 -0.042969 0-1.5242 0.072157-2.7535-0.53207-3.6523-1.4102-0.61438-0.60015-1.0966-1.3089-1.5371-2.0312-0.44045 0.72229-0.9227 1.431-1.5371 2.0312-0.89882 0.87807-2.1264 1.4823-3.6504 1.4102-0.01472-5.33e-4 -0.030122 5.37e-4 -0.044922 0-0.6268-0.00575-1.2492-0.13362-1.8301-0.37891-0.59444-0.25107-1.1375-0.62083-1.5957-1.0879-0.45818-0.46718-0.82635-1.0258-1.0762-1.6406-0.24981-0.61488-0.37695-1.2777-0.37695-1.9453 0-0.6674 0.12776-1.3299 0.37695-1.9453 0.24977-0.61438 0.61795-1.1734 1.0762-1.6406 0.45822-0.4671 0.9993-0.83688 1.5938-1.0879 0.59437-0.25102 1.2334-0.37891 1.875-0.37891zm-0.015625 1.4434-0.001953 0.001953c-0.45649 0-0.91434 0.096558-1.334 0.2793-0.41415 0.18058-0.79789 0.4489-1.1133 0.77734l-0.011719 0.013672c-0.31787 0.33456-0.57411 0.73584-0.74414 1.168-0.17005 0.43207-0.25781 0.90183-0.25781 1.3672 0 0.46515 0.088076 0.93649 0.25781 1.3691 0.17046 0.43193 0.42633 0.83622 0.74414 1.1699l0.011719 0.011719c0.31542 0.32847 0.69916 0.59677 1.1133 0.77734 0.41972 0.18302 0.87968 0.2793 1.3359 0.2793h0.044922c1.1964 0.068979 1.9301-0.32434 2.6367-1.0371 0.64089-0.64659 1.2106-1.5988 1.8008-2.6426-0.51702-0.89347-1.0379-1.7141-1.6328-2.3164-0.75031-0.75981-1.5686-1.2188-2.8496-1.2188zm10.41 0c-1.2806 0-2.0992 0.4589-2.8496 1.2188-0.59517 0.60167-1.1157 1.421-1.6328 2.3145 0.59011 1.0437 1.1601 1.9981 1.8008 2.6445 0.7064 0.7129 1.4387 1.1057 2.6348 1.0371h0.046875c0.45627 0 0.91619-0.096269 1.3359-0.2793 0.41415-0.1806 0.79593-0.4489 1.1113-0.77734l0.013672-0.013672c0.31788-0.33456 0.57216-0.73584 0.74219-1.168 0.17005-0.43215 0.25781-0.90376 0.25781-1.3691 0-0.46515-0.088074-0.93526-0.25781-1.3672-0.17004-0.43215-0.42432-0.83338-0.74219-1.168l-0.013672-0.015625c-0.31542-0.32847-0.69722-0.59677-1.1113-0.77734-0.41972-0.18302-0.87967-0.2793-1.3359-0.2793zm-0.87109 1.4453h1.4434v1.4453h1.4453v1.4434h-1.4453v1.4453h-1.4434v-1.4453h-1.4453v-1.4434h1.4453v-1.4453zm-11.557 1.4453h4.334v1.4434h-4.334v-1.4434z" fill="primary"/><path d="m26.395 10.932c1.662 0 3 1.338 3 3v2.7501h20.605c2.77 0 5 2.23 5 5v0.5918h-46v-8.3419c0-1.662 1.338-3 3-3z" fill="secondary"/></svg>
