<svg width="64" height="64" version="1.1" viewBox="0 0 64 64" xml:space="preserve" xmlns="http://www.w3.org/2000/svg"><path d="m7 24.016v24.865c0 2.77 2.23 5 5 5h40c2.77 0 5-2.23 5-5v-24.865h-50zm32.475 6.5996a0.83342 0.83342 0 0 1 0.85938 0.83398v10.834c0 1.8311-1.5029 3.332-3.334 3.332s-3.334-1.501-3.334-3.332c0-1.8311 1.5029-3.334 3.334-3.334 0.60536 0 1.1748 0.16514 1.666 0.45117v-6.9668l-8.332 1.3887v10.127 0.001953c-9.45e-4 1.8303-1.5035 3.332-3.334 3.332-1.8311 0-3.334-1.5029-3.334-3.334s1.5029-3.334 3.334-3.334c0.60536 0 1.1748 0.16509 1.666 0.45117v-7.9512a0.83342 0.83342 0 0 1 0.69726-0.82226l10-1.666a0.83342 0.83342 0 0 1 0.11133-0.011719zm-2.4746 10c-0.93034 0-1.666 0.73762-1.666 1.668 0 0.93034 0.73567 1.666 1.666 1.666s1.666-0.73567 1.666-1.666c0-0.93034-0.73567-1.668-1.666-1.668zm-10 1.668c-0.93034 0-1.666 0.73567-1.666 1.666s0.73567 1.666 1.666 1.666c0.93005 0 1.6656-0.73609 1.666-1.666 0-0.93034-0.73567-1.666-1.666-1.666z" fill="primary"/><path d="m26.395 11.746c1.662 0 3 1.338 3 3v2.7501h20.605c2.77 0 5 2.23 5 5v0.5918h-46v-8.3419c0-1.662 1.338-3 3-3z" fill="secondary"/></svg>
