<svg width="64" height="64" version="1.1" viewBox="0 0 64 64" xml:space="preserve" xmlns="http://www.w3.org/2000/svg"><path d="m7 24.016v24.865c0 2.77 2.23 5 5 5h40c2.77 0 5-2.23 5-5v-24.865h-50zm28.801 7.9316 2.1992 1.002-3 3.5996 3 3.4004-2.1992 1-2.8066-4v3.5996l-1.9941 0.31055v-8.5117l2-0.39844-0.005859 4.1992 2.8066-4.2012zm-7.502 3.2012c0.017536 6.75e-4 0.034356 0.006778 0.050781 0.017578l1.4766 0.95898c0.2043-0.1165 0.35102-0.21788 0.57422-0.30078v1.5879c-0.8708 0.5489-1.3994 1.5078-1.4004 2.5371 0 1.657 1.3431 3 3 3 1.1753-1e-3 2.2415-0.68977 2.7285-1.7598l1.2129 1.5605 0.074219 0.025391 0.18945-0.056641 0.58008 0.94727c0.027 0.043 0.018422 0.098765-0.017578 0.13476l-0.84961 0.84375c-0.037 0.037-0.094672 0.043625-0.13867 0.015625l-1.4824-0.9668c-0.366 0.225-0.76295 0.40462-1.1895 0.51562l-0.41016 1.6582c-0.012 0.048999-0.055069 0.082031-0.10547 0.082031h-1.207c-0.0524 0-0.094669-0.038844-0.10547-0.089844l-0.3457-1.6445c-0.4231-0.106-0.82085-0.27419-1.1855-0.49219l-1.4766 0.89062c-0.0432 0.026-0.098765 0.022328-0.13476-0.013672l-0.85352-0.8457c-0.037-0.037-0.042272-0.096625-0.013672-0.14062l0.94531-1.4297c-0.2291-0.387-0.40171-0.81042-0.50391-1.2617l-1.623-0.39258c-0.0493-0.0117-0.087891-0.052816-0.087891-0.10352v-1.1973c0-0.052 0.037091-0.10093 0.087891-0.11133l1.6738-0.3457c0.1113-0.4014 0.27683-0.7786 0.49023-1.125l-0.9082-1.4883c-0.0263-0.0432-0.022128-0.097112 0.013672-0.13281l0.85352-0.84961c0.018599-0.0186 0.045712-0.02239 0.070312-0.02539 0.0061-6e-4 0.011733-0.002179 0.017578-0.001953z" fill="primary"/><path d="m26.395 11.746c1.662 0 3 1.338 3 3v2.7501h20.605c2.77 0 5 2.23 5 5v0.5918h-46v-8.3419c0-1.662 1.338-3 3-3z" fill="secondary"/></svg>
