<svg width="64" height="64" version="1.1" viewBox="0 0 64 64" xml:space="preserve" xmlns="http://www.w3.org/2000/svg"><path d="m7 24.016v24.865c0 2.77 2.23 5 5 5h40c2.77 0 5-2.23 5-5v-24.865h-50zm29.779 7.9316c2.962 0-0.18561 4-1.8496 4-1.6672 0-1.1106-4 1.8496-4zm-4.5488 1c1.48 8e-3 0.52339 3.05-0.34961 3-0.903-0.051-1.4977-2.7843 0.19727-2.9883 0.052-5e-3 0.10534-0.011718 0.15234-0.011718zm-3.0898 1c1.165 0.047 1.0462 1.8931 0.24023 1.9941-0.888 0.112-2.2325-1.5424-0.64648-1.9434 0.149-0.038 0.28525-0.055781 0.40625-0.050781zm-2.2129 2c0.991 0.023 1.419 1.7765 0.74805 1.9785-0.767 0.23-2.511-1.257-1.207-1.873 0.163-0.076 0.31698-0.10747 0.45898-0.10547zm6.082 1v0.003906c1.4002 0.022 2.5326 0.45569 2.6836 1.3047 0.487 2.727-6.693 3.6918-4.123 5.7168 0.875 0.627 1.5725 0.78355 1.4375-0.18945-0.113-0.811 3.2235-1.3393 2.9785-0.11328-0.322 1.608-2.0441 2.2773-3.5371 2.2773-3.034 0-5.945-3.3237-5.377-5.7207 0.526-2.214 3.6035-3.3163 5.9375-3.2793z" fill="primary"/><path d="m26.395 11.746c1.662 0 3 1.338 3 3v2.7501h20.605c2.77 0 5 2.23 5 5v0.5918h-46v-8.3419c0-1.662 1.338-3 3-3z" fill="secondary"/></svg>
