<svg width="64" height="64" version="1.1" viewBox="0 0 64 64" xml:space="preserve" xmlns="http://www.w3.org/2000/svg"><path d="m7 23.203v24.865c0 2.77 2.23 5 5 5h40c2.77 0 5-2.23 5-5v-24.865zm18.354 6.709h13.295c0.86529 0 1.5762 0.71283 1.5762 1.5781v13.291c0 0.8653-0.71088 1.5781-1.5762 1.5781h-13.295c-0.8653 0-1.5781-0.71283-1.5781-1.5781v-13.291c0-0.8653 0.71283-1.5781 1.5781-1.5781zm0 1c-0.32859 0-0.57812 0.24953-0.57812 0.57812v13.291c0 0.32859 0.24953 0.57812 0.57812 0.57812h13.295c0.32859 0 0.57617-0.24953 0.57617-0.57812v-13.291c0-0.32859-0.24758-0.57812-0.57617-0.57812zm2.0254 4.4512h2.9395v1h-2.9395zm6.3047 0h2.9395v1h-2.9395zm-3.1543 4.543h2.9414v1h-2.9414z" fill="primary"/><path d="m26.395 10.932c1.662 0 3 1.338 3 3v2.7501h20.605c2.77 0 5 2.23 5 5v0.5918h-46v-8.3419c0-1.662 1.338-3 3-3z" fill="secondary"/></svg>
