<svg width="64" height="64" version="1.1" viewBox="0 0 64 64" xml:space="preserve" xmlns="http://www.w3.org/2000/svg"><path d="m7 24.016v24.865c0 2.77 2.23 5 5 5h40c2.77 0 5-2.23 5-5v-24.865h-50zm25 5.7656c1.2269 0 2.4649 0.40673 3.418 1.2539 0.95307 0.84717 1.582 2.1489 1.582 3.7461v2.5h0.83398c1.3706 0 2.5 1.1294 2.5 2.5v5.834c0 1.3706-1.1294 2.5-2.5 2.5h-11.668c-1.3706 0-2.5-1.1294-2.5-2.5v-5.834c0-1.3706 1.1294-2.5 2.5-2.5h0.83398v-2.5c0-1.5972 0.62896-2.8989 1.582-3.7461 0.95307-0.84717 2.1911-1.2539 3.418-1.2539zm0 1.666c-0.85648 0-1.7011 0.29032-2.3105 0.83203-0.60943 0.54172-1.0234 1.3214-1.0234 2.502v2.5h6.668v-2.5c0-1.1806-0.41401-1.9602-1.0234-2.502-0.60943-0.54172-1.4541-0.83203-2.3105-0.83203zm-5.834 7.5c-0.47608 0-0.83203 0.3579-0.83203 0.83398v5.834c0 0.47608 0.35595 0.83203 0.83203 0.83203h11.668c0.47608 0 0.83203-0.35595 0.83203-0.83203v-5.834c0-0.47608-0.35595-0.83398-0.83203-0.83398h-1.666-0.001953-8.332-0.001953-1.666z" fill="primary"/><path d="m26.395 11.746c1.662 0 3 1.338 3 3v2.7501h20.605c2.77 0 5 2.23 5 5v0.5918h-46v-8.3419c0-1.662 1.338-3 3-3z" fill="secondary"/></svg>
