<svg width="64" height="64" version="1.1" viewBox="0 0 64 64" xml:space="preserve" xmlns="http://www.w3.org/2000/svg"><path d="m7 23.203v24.865c0 2.77 2.23 5 5 5h40c2.77 0 5-2.23 5-5v-24.865h-50zm17.912 7.0273a0.83342 0.83342 0 0 1 0.33789 0.064453l14.141 5.8906a0.83342 0.83342 0 0 1-0.050781 1.5586l-4.8906 1.6621 4.4023 4.4023a0.83333 0.83333 0 0 1 0 1.1777 0.83333 0.83333 0 0 1-1.1777 0l-4.4023-4.4023-1.6621 4.8906a0.83342 0.83342 0 0 1-1.5586 0.050782l-5.8906-14.141a0.83342 0.83342 0 0 1 0.75195-1.1543zm1.5645 2.3809 4.2637 10.236 1.3828-4.0684a0.83342 0.83342 0 0 1 0.52148-0.52148l4.0684-1.3828-10.236-4.2637z" fill="primary"/><path d="m26.395 10.932c1.662 0 3 1.338 3 3v2.7501h20.605c2.77 0 5 2.23 5 5v0.5918h-46v-8.3419c0-1.662 1.338-3 3-3z" fill="secondary"/></svg>
