<svg width="64" height="64" version="1.1" viewBox="0 0 64 64" xml:space="preserve" xmlns="http://www.w3.org/2000/svg"><path d="m7 23.203v24.865c0 2.77 2.23 5 5 5h40c2.77 0 5-2.23 5-5v-24.865h-50zm16.666 7.0156h5c1.3588 0 2.5717 0.66076 3.334 1.6758 0.76225-1.015 1.9752-1.6758 3.334-1.6758h5a0.83342 0.83342 0 0 1 0.83203 0.83398v12.5a0.83342 0.83342 0 0 1-0.83203 0.83398h-5.834c-0.93034 0-1.666 0.73567-1.666 1.666h-1.668c0-0.93034-0.73567-1.666-1.666-1.666h-5.834a0.83342 0.83342 0 0 1-0.83203-0.83398v-12.5a0.83342 0.83342 0 0 1 0.83203-0.83398zm0.83398 1.668v10.832h5c0.61875 0 1.1676 0.21782 1.666 0.51562v-8.8477c-1e-6 -1.3906-1.1094-2.5-2.5-2.5h-4.166zm10.834 0c-1.3906 0-2.5 1.1094-2.5 2.5v8.8477c0.49838-0.2978 1.0473-0.51562 1.666-0.51562h5v-10.832h-4.166z" fill="primary"/><path d="m26.395 10.932c1.662 0 3 1.338 3 3v2.7501h20.605c2.77 0 5 2.23 5 5v0.5918h-46v-8.3419c0-1.662 1.338-3 3-3z" fill="secondary"/></svg>
