<svg width="64" height="64" version="1.1" viewBox="0 0 64 64" xml:space="preserve" xmlns="http://www.w3.org/2000/svg"><path d="m7 24.016v24.865c0 2.77 2.23 5 5 5h40c2.77 0 5-2.23 5-5v-24.865h-50zm19.24 5.666c0.28942 0 0.57984 0.10321 0.80469 0.30859a0.83342 0.83342 0 0 1 0.017578 0.015625c0.14475 0.1399 0.25012 0.31519 0.30859 0.50781l-0.003906-0.017578 1.8457 5.668h5.5391l1.8457-5.6836a0.83342 0.83342 0 0 1 0.015625-0.042969c0.066147-0.17103 0.17308-0.32379 0.30859-0.44727 0.44977-0.40946 1.1562-0.41032 1.6055 0a0.83342 0.83342 0 0 1 0.017578 0.015625c0.14409 0.13927 0.24995 0.31426 0.30859 0.50586l0.001953 0.001953 2.0273 6.2383 1.0566 3.127a0.83342 0.83342 0 0 1 0.009766 0.035156c0.18619 0.63936-0.072966 1.3277-0.625 1.6973l0.023437-0.007812-0.037109 0.02539-8.8379 6.4258a0.83342 0.83342 0 0 1-0.98047 0l-8.875-6.4512a0.83342 0.83342 0 0 1-0.003907-0.001954c-0.532-0.39124-0.75387-1.0897-0.54688-1.7168l1.0156-3.1445a0.83342 0.83342 0 0 0 0-0.001953l2.0332-6.2578a0.83342 0.83342 0 0 1 0.015625-0.042969c0.066147-0.17103 0.17308-0.32379 0.30859-0.44727 0.22464-0.20451 0.51198-0.30859 0.80078-0.30859zm11.482 2.7344-1.5723 4.8379a0.83342 0.83342 0 0 1-0.79297 0.57617h-6.75a0.83342 0.83342 0 0 1-0.79102-0.57617l-1.5781-4.8359-1.5703 4.8359-0.99024 3.0605 8.3047 6.0352 8.3359-6.0586-1.0176-3.0117a0.83342 0.83342 0 0 1-0.001953-0.007813l-1.5762-4.8555zm2.7148 7.8047-0.033203 0.009766-0.001953 0.001953v0.001953 0.001953l-0.001953 0.001953v0.001953 0.001954 0.001953a0.83342 0.83342 0 0 1 0.037109-0.023438z" fill="primary"/><path d="m26.395 11.746c1.662 0 3 1.338 3 3v2.7501h20.605c2.77 0 5 2.23 5 5v0.5918h-46v-8.3419c0-1.662 1.338-3 3-3z" fill="secondary"/></svg>
