<svg width="64" height="64" version="1.1" viewBox="0 0 64 64" xml:space="preserve" xmlns="http://www.w3.org/2000/svg"><path d="m7 24.016v24.865c0 2.77 2.23 5 5 5h40c2.77 0 5-2.23 5-5v-24.865h-50zm30 5.7656c1.8311 0 3.334 1.5029 3.334 3.334 0 1.8311-1.5029 3.332-3.334 3.332-0.92066 0-1.7579-0.37772-2.3633-0.98828l-4.4297 2.582c0.082323 0.28854 0.12695 0.59254 0.12695 0.90625 0 0.31356-0.044713 0.61784-0.12695 0.90625l4.4316 2.582c0.60521-0.60906 1.442-0.98828 2.3613-0.98828 1.8311 0 3.334 1.5029 3.334 3.334 0 1.8311-1.5029 3.334-3.334 3.334s-3.334-1.5029-3.334-3.334c0-0.31497 0.043993-0.62058 0.12695-0.91016l-4.4297-2.5801c-0.60544 0.61074-1.4425 0.99023-2.3633 0.99023-1.8311 0-3.334-1.5029-3.334-3.334s1.5029-3.332 3.334-3.332c0.92066 0 1.7579 0.37772 2.3633 0.98828l4.4297-2.582c-0.082323-0.28854-0.12695-0.59254-0.12695-0.90625 0-1.8311 1.5029-3.334 3.334-3.334zm0 1.666c-0.93034 0-1.666 0.73762-1.666 1.668 0 0.28464 0.069175 0.55025 0.19141 0.7832a0.83333 0.83333 0 0 1 0.035156 0.054687 0.83333 0.83333 0 0 1 0.033203 0.0625c0.29394 0.4624 0.81008 0.76562 1.4062 0.76562 0.93034 0 1.666-0.73567 1.666-1.666 0-0.93034-0.73567-1.668-1.666-1.668zm-10 5.834c-0.93034 0-1.666 0.73567-1.666 1.666s0.73567 1.666 1.666 1.666c0.58987 0 1.101-0.29641 1.3965-0.75a0.83333 0.83333 0 0 1 0.041016-0.078125 0.83333 0.83333 0 0 1 0.044922-0.070312c0.11724-0.22903 0.18359-0.4892 0.18359-0.76758 0-0.28258-0.066916-0.54779-0.1875-0.7793a0.83333 0.83333 0 0 1-0.039063-0.056641 0.83333 0.83333 0 0 1-0.037109-0.070312c-0.29445-0.45911-0.80824-0.75977-1.4023-0.75977zm10 5.834c-0.57712 0-1.0788 0.28114-1.377 0.71875a0.83333 0.83333 0 0 1-0.052735 0.10742 0.83333 0.83333 0 0 1-0.066406 0.097656c-0.10886 0.22275-0.16992 0.47458-0.16992 0.74219 0 0.93034 0.73567 1.666 1.666 1.666s1.666-0.73567 1.666-1.666c0-0.93034-0.73567-1.666-1.666-1.666z" fill="primary"/><path d="m26.395 11.746c1.662 0 3 1.338 3 3v2.7501h20.605c2.77 0 5 2.23 5 5v0.5918h-46v-8.3419c0-1.662 1.338-3 3-3z" fill="secondary"/></svg>
