<svg width="64" height="64" version="1.1" xmlns="http://www.w3.org/2000/svg">
 <path d="m7 24.016v24.865c0 2.77 2.23 5 5 5h40c2.77 0 5-2.23 5-5v-24.865h-50zm24.818 6.6172c3.4009-0.056507 6.772 1.9455 8.043 5.5371a0.83334 0.83334 0 0 1-0.50781 1.0645 0.83334 0.83334 0 0 1-1.0645-0.50781c-1.6468-4.6538-7.5102-5.9799-11-2.4883a0.83342 0.83342 0 0 1-0.017578 0.017578l-2.332 2.1914h2.8945a0.83333 0.83333 0 0 1 0.83203 0.83398 0.83333 0.83333 0 0 1-0.83203 0.83398h-5a0.83342 0.83342 0 0 1-0.02539-0.001953 0.83342 0.83342 0 0 1-0.09961-0.009765 0.83342 0.83342 0 0 1-0.009765 0 0.83334 0.83334 0 0 1-0.029297-0.007813 0.83342 0.83342 0 0 1-0.074219-0.017578 0.83342 0.83342 0 0 0-0.001953 0 0.83334 0.83334 0 0 1-0.007812-0.001953 0.83342 0.83342 0 0 1-0.083985-0.03125 0.83334 0.83334 0 0 1-0.041015-0.019531 0.83342 0.83342 0 0 1-0.060547-0.03125 0.83334 0.83334 0 0 1-0.019532-0.013672 0.83342 0.83342 0 0 1-0.074218-0.054688 0.83342 0.83342 0 0 1-0.078125-0.072265 0.83334 0.83334 0 0 0-0.001954-0.001954 0.83334 0.83334 0 0 1-0.005859-0.007812 0.83342 0.83342 0 0 1-0.058594-0.070312 0.83334 0.83334 0 0 1-0.021484-0.03125 0.83342 0.83342 0 0 1-0.035156-0.054688 0.83334 0.83334 0 0 1-0.015625-0.03125 0.83342 0.83342 0 0 1-0.033203-0.074219 0.83334 0.83334 0 0 1-0.027344-0.083984 0.83334 0.83334 0 0 1-0.017578-0.087891 0.83342 0.83342 0 0 1-0.003907-0.027344 0.83334 0.83334 0 0 1-0.003906-0.060546 0.83342 0.83342 0 0 1-0.003906-0.041016v-0.011719-4.9883a0.83333 0.83333 0 0 1 0.83398-0.83398 0.83333 0.83333 0 0 1 0.83203 0.83398v3.0742l2.4453-2.2969c1.616-1.6168 3.6665-2.3919 5.707-2.4258zm4.3477 9.1484h4.9668 0.033204a0.83334 0.83334 0 0 1 0.027343 0 0.83334 0.83334 0 0 1 0.052735 0.005859 0.83342 0.83342 0 0 1 0.041015 0.003907 0.83334 0.83334 0 0 1 0.013672 0.001953 0.83342 0.83342 0 0 1 0.082031 0.017578 0.83334 0.83334 0 0 0 0.001954 0 0.83334 0.83334 0 0 1 0.083984 0.029297 0.83334 0.83334 0 0 1 0.025391 0.009765 0.83334 0.83334 0 0 1 0.044921 0.021485 0.83342 0.83342 0 0 1 0.060547 0.03125 0.83334 0.83334 0 0 1 0.00586 0.003906 0.83342 0.83342 0 0 1 0.013672 0.009766 0.83342 0.83342 0 0 1 0.074218 0.054687 0.83342 0.83342 0 0 1 0.078125 0.072266 0.83334 0.83334 0 0 0 0.001954 0.001953 0.83342 0.83342 0 0 1 0.005859 0.007812 0.83342 0.83342 0 0 1 0.058594 0.070313 0.83334 0.83334 0 0 1 0.003906 0.003906 0.83342 0.83342 0 0 1 0.046875 0.072266 0.83334 0.83334 0 0 1 0.009766 0.017578 0.83342 0.83342 0 0 1 0.011718 0.025391 0.83342 0.83342 0 0 1 0.033203 0.072265 0.83342 0.83342 0 0 1 0.027344 0.083985 0.83334 0.83334 0 0 1 0.017578 0.08789 0.83342 0.83342 0 0 1 0.003907 0.019531 0.83334 0.83334 0 0 1 0.001953 0.015625 0.83342 0.83342 0 0 1 0.005859 0.09375 0.83334 0.83334 0 0 1 0 0.011719v4.9883a0.83333 0.83333 0 0 1-0.83398 0.83203 0.83333 0.83333 0 0 1-0.83203-0.83203v-3.0742l-2.4453 2.2969c-4.3092 4.3114-11.716 2.6352-13.75-3.1113a0.83334 0.83334 0 0 1 0.50781-1.0645 0.83334 0.83334 0 0 1 1.0645 0.50781c1.6468 4.6538 7.5102 5.9799 11 2.4883a0.83342 0.83342 0 0 1 0.017578-0.017578l2.334-2.1934h-2.8965a0.83333 0.83333 0 0 1-0.83203-0.83203 0.83333 0.83333 0 0 1 0.83203-0.83398z" fill="primary"/>
 <path d="m26.395 11.746c1.662 0 3 1.338 3 3v2.7501h20.605c2.77 0 5 2.23 5 5v0.5918h-46v-8.3419c0-1.662 1.338-3 3-3z" fill="secondary"/>
</svg>
