<svg width="64" height="64" version="1.1" viewBox="0 0 64 64" xml:space="preserve" xmlns="http://www.w3.org/2000/svg"><path d="m7 24.016v24.865c0 2.77 2.23 5 5 5h40c2.77 0 5-2.23 5-5v-24.865h-50zm25 7.4316c6.4682 0 9.9121 7.127 9.9121 7.127a0.83342 0.83342 0 0 1 0 0.74609c0 1e-6 -3.4439 7.127-9.9121 7.127s-9.9121-7.127-9.9121-7.127a0.83342 0.83342 0 0 1 0-0.74609s3.4439-7.127 9.9121-7.127zm0 1.668c-4.8861 0-7.7907 5.1733-8.1504 5.832 0.35972 0.65872 3.2643 5.834 8.1504 5.834s7.7907-5.1753 8.1504-5.834c-0.35972-0.65872-3.2643-5.832-8.1504-5.832zm0 2.5c1.8311 0 3.334 1.501 3.334 3.332s-1.5029 3.334-3.334 3.334-3.334-1.5029-3.334-3.334 1.5029-3.332 3.334-3.332zm0 1.666c-0.93034 0-1.666 0.73567-1.666 1.666s0.73568 1.668 1.666 1.668 1.666-0.73762 1.666-1.668-0.73568-1.666-1.666-1.666z" fill="primary"/><path d="m26.395 11.746c1.662 0 3 1.338 3 3v2.7501h20.605c2.77 0 5 2.23 5 5v0.5918h-46v-8.3419c0-1.662 1.338-3 3-3z" fill="secondary"/></svg>
