<svg width="64" height="64" version="1.1" viewBox="0 0 64 64" xml:space="preserve" xmlns="http://www.w3.org/2000/svg"><path d="m7 24.016v24.865c0 2.77 2.23 5 5 5h40c2.77 0 5-2.23 5-5v-24.865h-50zm19.586 5.7656a0.83333 0.83333 0 0 1 0.83203 0.83398v2.5a0.83333 0.83333 0 0 1-0.83203 0.83203 0.83333 0.83333 0 0 1-0.83398-0.83203v-2.5a0.83333 0.83333 0 0 1 0.83398-0.83398zm3.332 0a0.83333 0.83333 0 0 1 0.83398 0.83398v2.5a0.83333 0.83333 0 0 1-0.83398 0.83203 0.83333 0.83333 0 0 1-0.83203-0.83203v-2.5a0.83333 0.83333 0 0 1 0.83203-0.83398zm3.334 0a0.83333 0.83333 0 0 1 0.83398 0.83398v2.5a0.83333 0.83333 0 0 1-0.83398 0.83203 0.83333 0.83333 0 0 1-0.83398-0.83203v-2.5a0.83333 0.83333 0 0 1 0.83398-0.83398zm-10 5.834h13.33 0.001953 0.83203a0.83342 0.83342 0 0 1 0.003906 0c1.3191 5.59e-4 2.4112 0.52523 3.1191 1.3223 0.70791 0.79703 1.0449 1.8253 1.0449 2.8438 0 1.0184-0.33682 2.051-1.0449 2.8477-0.7081 0.79665-1.802 1.3189-3.1211 1.3184-1e-6 2.2913-1.8747 4.168-4.166 4.168h-6.666c-2.2913 0-4.1699-1.8767-4.1699-4.168v-7.5a0.83342 0.83342 0 0 1 0.83594-0.83203zm0.83398 1.666v6.666c-1e-6 1.3906 1.1094 2.5 2.5 2.5h6.666c1.3906 0 2.5-1.1094 2.5-2.5v-0.83008a0.83333 0.83333 0 0 0 0-0.001954v-5.834h-11.666zm13.332 0-0.001953 5a0.83342 0.83342 0 0 1 0.003906 0c0.90222 3.83e-4 1.4725-0.30689 1.875-0.75977 0.40254-0.45288 0.62305-1.092 0.62305-1.7402 0-0.64823-0.22032-1.2848-0.62305-1.7383s-0.97474-0.76134-1.877-0.76172z" fill="primary"/><path d="m26.395 11.746c1.662 0 3 1.338 3 3v2.7501h20.605c2.77 0 5 2.23 5 5v0.5918h-46v-8.3419c0-1.662 1.338-3 3-3z" fill="secondary"/></svg>
