<svg width="64" height="64" version="1.1" viewBox="0 0 64 64" xml:space="preserve" xmlns="http://www.w3.org/2000/svg"><path d="m7 24.016v24.865c0 2.77 2.23 5 5 5h40c2.77 0 5-2.23 5-5v-24.865h-50zm28.186 6.9316c0.103 0.9-0.27538 1.9016-0.83398 2.6016-0.559 0.6-1.4751 1.1996-2.373 1.0996-0.1215-0.9 0.33181-1.9 0.84961-2.5 0.5771-0.7 1.553-1.2012 2.3574-1.2012zm-0.48047 3.873c0.15293-0.005468 0.30904 0.002344 0.46484 0.027344 0.521 0 1.9838 0.19961 2.9238 1.5996l-0.001953 0.001953c-0.12124 0.030761-1.7443 1.0293-1.7246 2.998 0.020999 2.4 2.1225 3.2012 2.1465 3.2012-0.019 0.1-0.33642 1.1988-1.1074 2.2988-0.667 1-1.3573 2-2.4473 2-1.0727 0-1.4177-0.69922-2.6426-0.69922s-1.6079 0.69922-2.6211 0.69922c-1.0521 0-1.8534-1.1-2.5254-2-1.3752-2-2.4247-5.5996-1.0137-8.0996 0.6993-1.2 1.9505-2 3.3086-2 1.0334 0 2.0099 0.70117 2.6406 0.70117 0.55326 0 1.5291-0.69023 2.5996-0.72852z" fill="primary"/><path d="m26.395 11.746c1.662 0 3 1.338 3 3v2.7501h20.605c2.77 0 5 2.23 5 5v0.5918h-46v-8.3419c0-1.662 1.338-3 3-3z" fill="secondary"/></svg>
