<svg width="64" height="64" version="1.1" viewBox="0 0 64 64" xml:space="preserve" xmlns="http://www.w3.org/2000/svg"><path d="m7 23.203v24.865c0 2.77 2.23 5 5 5h40c2.77 0 5-2.23 5-5v-24.865h-50zm25 4.9316c1.3708 0 2.5 1.1292 2.5 2.5v0.076172c0.001557 0.21738 0.12816 0.40461 0.32812 0.49023a0.83342 0.83342 0 0 1 0.007813 0.003906c0.20488 0.090424 0.43756 0.049176 0.59766-0.10742l0.042968-0.042968c0.96954-0.97062 2.5676-0.97062 3.5371 0 0.96878 0.96921 0.96878 2.5659 0 3.5352v0.003906l-0.042969 0.042969c-0.1566 0.16009-0.19784 0.39277-0.10742 0.59766a0.83342 0.83342 0 0 1 0.017578 0.083984c0.089539 0.18982 0.2691 0.31752 0.48047 0.31836h0.13867c1.3708 0 2.5 1.1292 2.5 2.5s-1.1292 2.5-2.5 2.5h-0.074219c-0.21738 0.001557-0.40653 0.12822-0.49219 0.32812a0.83342 0.83342 0 0 1-0.003906 0.007812c-0.090424 0.20488-0.049213 0.43566 0.10742 0.5957l0.042969 0.042969c0.97062 0.96954 0.97062 2.5676 0 3.5371-0.96967 0.96924-2.568 0.97016-3.5371 0l-0.042969-0.042969c-0.16009-0.1566-0.39278-0.19784-0.59766-0.10742a0.83342 0.83342 0 0 1-0.007813 0.001953c-0.20049 0.085928-0.32726 0.27797-0.32812 0.49609v0.13867c0 1.3708-1.1292 2.5-2.5 2.5-1.3708 0-2.5-1.1292-2.5-2.5v-0.054688c-0.005261-0.22492-0.14236-0.41843-0.35352-0.49609a0.83342 0.83342 0 0 1-0.048829-0.019531c-0.20488-0.090422-0.43756-0.049176-0.59766 0.10742l-0.042968 0.042969c-0.96954 0.97062-2.5676 0.97062-3.5371 0-0.96878-0.96921-0.96878-2.5659 0-3.5352l0.042969-0.044922c0.1566-0.16009 0.19784-0.39278 0.10742-0.59766a0.83342 0.83342 0 0 1-0.001953-0.005859c-0.085928-0.20049-0.27797-0.32726-0.49609-0.32812h-0.13867c-1.3708 0-2.5-1.1292-2.5-2.5 0-1.3708 1.1292-2.5 2.5-2.5h0.054688c0.22492-0.005261 0.41843-0.14236 0.49609-0.35352a0.83342 0.83342 0 0 1 0.019531-0.048828c0.090423-0.20488 0.049177-0.43756-0.10742-0.59766l-0.042969-0.042969c-0.97062-0.96954-0.97062-2.5676 0-3.5371 0.96967-0.96924 2.568-0.97016 3.5371 0l0.042969 0.042969c0.16009 0.1566 0.39278 0.19784 0.59766 0.10742a0.83342 0.83342 0 0 1 0.083985-0.017579c0.18982-0.089539 0.31752-0.27105 0.31836-0.48242v-0.13867c0-1.3708 1.1292-2.5 2.5-2.5zm0 1.668c-0.47011 0-0.83398 0.36192-0.83398 0.83203v0.14258a0.83342 0.83342 0 0 1 0 0.003906c-0.003502 0.87794-0.53093 1.6756-1.3379 2.0215a0.83342 0.83342 0 0 1-0.21875 0.058594c-0.78628 0.27566-1.6732 0.085156-2.2754-0.50391a0.83342 0.83342 0 0 1-0.005859-0.00586l-0.050781-0.050781c-0.33251-0.33288-0.84718-0.33288-1.1797 0-0.33288 0.33251-0.33288 0.84718 0 1.1797l0.050782 0.050781a0.83342 0.83342 0 0 1 0.005859 0.005859c0.6228 0.63669 0.79355 1.5904 0.44531 2.4082-0.31885 0.83442-1.1111 1.4029-2.0059 1.4238a0.83342 0.83342 0 0 1-0.019531 0h-0.074219c-0.47011 0-0.83398 0.36388-0.83398 0.83398s0.36388 0.83398 0.83398 0.83398h0.14258a0.83342 0.83342 0 0 0 0.001953 0c0.87604 0.003494 1.6705 0.52999 2.0176 1.334 0.36133 0.8228 0.18716 1.7891-0.44141 2.4316a0.83342 0.83342 0 0 1-0.005859 0.00586l-0.050782 0.050781c-0.33288 0.33251-0.33288 0.84718 0 1.1797 0.33251 0.33288 0.84718 0.33288 1.1797 0l0.050781-0.050781a0.83342 0.83342 0 0 1 0.00586-0.005859c0.63669-0.6228 1.5904-0.79355 2.4082-0.44531 0.83442 0.31885 1.4029 1.1111 1.4238 2.0059a0.83342 0.83342 0 0 1 0 0.019531v0.074219c0 0.47011 0.36388 0.83398 0.83398 0.83398s0.83398-0.36388 0.83398-0.83398v-0.14258a0.83342 0.83342 0 0 1 0-0.003907c0.003494-0.87604 0.52999-1.6705 1.334-2.0176 0.8228-0.36133 1.7891-0.18716 2.4316 0.44141a0.83342 0.83342 0 0 1 0.005859 0.007813l0.050781 0.050781c0.33251 0.33288 0.84718 0.33288 1.1797 0 0.33288-0.33251 0.33288-0.84718 0-1.1797l-0.050782-0.050781a0.83342 0.83342 0 0 1-0.005859-0.007813c-0.62857-0.64259-0.80274-1.6088-0.44141-2.4316 0.34706-0.80399 1.1415-1.3305 2.0176-1.334a0.83342 0.83342 0 0 1 0.003906 0h0.074219c0.47011 0 0.83398-0.36388 0.83398-0.83398s-0.36388-0.83398-0.83398-0.83398h-0.14258a0.83342 0.83342 0 0 0-0.001953 0c-0.87794-0.003502-1.6756-0.53093-2.0215-1.3379a0.83342 0.83342 0 0 1-0.058593-0.21875c-0.27566-0.78628-0.085155-1.6732 0.50391-2.2754a0.83342 0.83342 0 0 1 0.005859-0.005859l0.050782-0.050782c0.33288-0.33251 0.33288-0.84718 0-1.1797-0.33251-0.33288-0.84718-0.33288-1.1797 0l-0.050781 0.050781a0.83342 0.83342 0 0 1-0.00586 0.005859c-0.64259 0.62857-1.6088 0.80274-2.4316 0.44141-0.80399-0.34706-1.3305-1.1415-1.334-2.0176a0.83342 0.83342 0 0 0 0-0.001953v-0.076172c0-0.47011-0.36388-0.83203-0.83398-0.83203zm0 5c1.8311 0 3.334 1.501 3.334 3.332s-1.5029 3.334-3.334 3.334-3.334-1.5029-3.334-3.334 1.5029-3.332 3.334-3.332zm0 1.666c-0.93034 0-1.666 0.73567-1.666 1.666s0.73567 1.668 1.666 1.668 1.666-0.73762 1.666-1.668-0.73567-1.666-1.666-1.666z" fill="primary"/><path d="m26.395 10.932c1.662 0 3 1.338 3 3v2.7501h20.605c2.77 0 5 2.23 5 5v0.5918h-46v-8.3419c0-1.662 1.338-3 3-3z" fill="secondary"/></svg>
