<svg width="64" height="64" version="1.1" viewBox="0 0 64 64" xml:space="preserve" xmlns="http://www.w3.org/2000/svg"><path d="m7 24.016v24.865c0 2.77 2.23 5 5 5h40c2.77 0 5-2.23 5-5v-24.865h-50zm15.834 6.5996h18.332a0.83342 0.83342 0 0 1 0.83398 0.83203v4.168a0.83342 0.83342 0 0 1-0.83398 0.83203h-0.83203v10a0.83342 0.83342 0 0 1-0.83398 0.83398h-15a0.83342 0.83342 0 0 1-0.83398-0.83398v-10h-0.83203a0.83342 0.83342 0 0 1-0.83398-0.83203v-4.168a0.83342 0.83342 0 0 1 0.83398-0.83203zm0.83203 1.666v2.5h0.80078 0.066406 14.934 0.066406 0.80078v-2.5h-16.668zm1.668 4.166v9.168h13.332v-9.168h-13.332zm5 1.668h3.332a0.83334 0.83334 0 0 1 0.83398 0.83203 0.83334 0.83334 0 0 1-0.83398 0.83398h-3.332a0.83334 0.83334 0 0 1-0.83398-0.83398 0.83334 0.83334 0 0 1 0.83398-0.83203z" fill="primary"/><path d="m26.395 11.746c1.662 0 3 1.338 3 3v2.7501h20.605c2.77 0 5 2.23 5 5v0.5918h-46v-8.3419c0-1.662 1.338-3 3-3z" fill="secondary"/></svg>
