<svg width="64" height="64" version="1.1" viewBox="0 0 64 64" xml:space="preserve" xmlns="http://www.w3.org/2000/svg"><path d="m7 23.203v24.865c0 2.77 2.23 5 5 5h40c2.77 0 5-2.23 5-5v-24.865h-50zm28 8.916 4 2-3 2 3 2.5-4 2-3-2 4-2.5-4-2 3-2zm-6 0.017578 3 2-3.9414 1.9707 3.9414 2.4629-3 2-4-2 2.9551-2.4629-2.9551-1.9707 4-2zm3 7.5156 3 2 1-0.5v1l-4 2-4-2v-1l1 0.5 3-2z" fill="primary"/><path d="m26.395 10.932c1.662 0 3 1.338 3 3v2.7501h20.605c2.77 0 5 2.23 5 5v0.5918h-46v-8.3419c0-1.662 1.338-3 3-3z" fill="secondary"/></svg>
