<svg width="64" height="64" version="1.1" viewBox="0 0 64 64" xml:space="preserve" xmlns="http://www.w3.org/2000/svg"><path d="m7 24.016v24.865c0 2.77 2.23 5 5 5h40c2.77 0 5-2.23 5-5v-24.865h-50zm21.99 7.4609c3.1567-0.18132 6.3178 1.6448 7.5 4.957h0.50781c1.5972 0 2.9009 0.62896 3.748 1.582 0.84717 0.95307 1.252 2.1911 1.252 3.418s-0.40478 2.4649-1.252 3.418c-0.84717 0.95307-2.1508 1.582-3.748 1.582h-7.5c-6.1814 0.00461-9.7188-7.2019-5.9355-12.09 1.4187-1.833 3.4097-2.7513 5.4277-2.8672zm0.13086 1.5996c-1.565 0.099075-3.1166 0.83282-4.2422 2.2871-3.0016 3.8781-0.28717 9.408 4.6172 9.4043a0.83342 0.83342 0 0 0 0.001953 0h7.5c1.1806 0 1.9602-0.41205 2.502-1.0215s0.83008-1.456 0.83008-2.3125-0.28836-1.7011-0.83008-2.3105c-0.54172-0.60943-1.3214-1.0215-2.502-1.0215h-1.0508a0.83342 0.83342 0 0 1-0.80664-0.625c-0.61305-2.3743-2.4281-3.8718-4.4648-4.291-0.50919-0.1048-1.033-0.1424-1.5547-0.10938z" fill="primary"/><path d="m26.395 11.746c1.662 0 3 1.338 3 3v2.7501h20.605c2.77 0 5 2.23 5 5v0.5918h-46v-8.3419c0-1.662 1.338-3 3-3z" fill="secondary"/></svg>
