<svg width="64" height="64" version="1.1" viewBox="0 0 64 64" xml:space="preserve" xmlns="http://www.w3.org/2000/svg"><path d="m4.9922 23.203 1.9375 24.865c0.21525 2.7616 2.23 5 5 5h40c2.77 0 5-2.23 5-5l2.0801-24.865h-54.018zm22.008 5.7656h5.8008 0.033203a0.83342 0.83342 0 0 1 0.10938 0.007812 0.83333 0.83333 0 0 1 0.10547 0.021485 0.83333 0.83333 0 0 1 0.10352 0.035156 0.83333 0.83333 0 0 1 0.080078 0.039063 0.83342 0.83342 0 0 1 0.017578 0.007812 0.83333 0.83333 0 0 1 0.007812 0.00586 0.83333 0.83333 0 0 1 0.054688 0.035156 0.83342 0.83342 0 0 1 0.027344 0.019531 0.83333 0.83333 0 0 1 0.009765 0.009766 0.83333 0.83333 0 0 1 0.052735 0.046875 0.83342 0.83342 0 0 1 0.019531 0.015625 0.83333 0.83333 0 0 1 0.029297 0.029297l5.8047 5.8027a0.83333 0.83333 0 0 1 0.072266 0.082031 0.83342 0.83342 0 0 1 0.060547 0.089844 0.83333 0.83333 0 0 1 0.048828 0.099609 0.83342 0.83342 0 0 1 0.054688 0.20898 0.83333 0.83333 0 0 1 0.007812 0.10938v9.166c-1e-6 1.3708-1.1292 2.5-2.5 2.5h-10c-1.3708 0-2.5-1.1292-2.5-2.5v-13.332c1e-6 -1.3708 1.1292-2.5 2.5-2.5zm0 1.666c-0.47011 0-0.83398 0.36388-0.83398 0.83398v13.332c0 0.47011 0.36388 0.83398 0.83398 0.83398h10c0.47011 0 0.83398-0.36388 0.83398-0.83398v-8.332h-5a0.83342 0.83342 0 0 1-0.83398-0.83398v-5h-5zm6.666 1.1777v2.9883h2.9883l-2.9883-2.9883z" fill="primary"/><path d="m26.395 10.932c1.662 0 3 1.338 3 3v2.7501h20.605c2.77 0 5 2.23 5 5v0.5918h-46v-8.3419c0-1.662 1.338-3 3-3z" fill="secondary"/></svg>
