<svg width="64" height="64" version="1.1" viewBox="0 0 64 64" xml:space="preserve" xmlns="http://www.w3.org/2000/svg"><path d="m7 24.016v24.865c0 2.77 2.23 5 5 5h40c2.77 0 5-2.23 5-5v-24.865h-50zm22.5 6.5996a0.83342 0.83342 0 0 1 0.79102 0.57031l4.209 12.627 1.709-5.127a0.83342 0.83342 0 0 1 0.79102-0.57031h3.334a0.83333 0.83333 0 0 1 0.83203 0.83398 0.83333 0.83333 0 0 1-0.83203 0.83203h-2.7324l-2.3105 6.9316a0.83342 0.83342 0 0 1-1.582 0l-4.209-12.627-1.709 5.127a0.83342 0.83342 0 0 1-0.79102 0.56836h-3.334a0.83333 0.83333 0 0 1-0.83203-0.83203 0.83333 0.83333 0 0 1 0.83203-0.83398h2.7324l2.3105-6.9297a0.83342 0.83342 0 0 1 0.79102-0.57031z" fill="primary"/><path d="m26.395 11.746c1.662 0 3 1.338 3 3v2.7501h20.605c2.77 0 5 2.23 5 5v0.5918h-46v-8.3419c0-1.662 1.338-3 3-3z" fill="secondary"/></svg>
