<svg width="64" height="64" version="1.1" viewBox="0 0 64 64" xml:space="preserve" xmlns="http://www.w3.org/2000/svg"><path d="m7 24.016v24.865c0 2.77 2.23 5 5 5h40c2.77 0 5-2.23 5-5v-24.865h-50zm25 7.8516c3.3467 0 6.6928 1.1778 9.3672 3.5352a0.83333 0.83333 0 0 1 0.074218 1.1758 0.83333 0.83333 0 0 1-1.1758 0.076172c-4.7287-4.1682-11.803-4.1682-16.531 0a0.83333 0.83333 0 0 1-1.1758-0.076172 0.83333 0.83333 0 0 1 0.074218-1.1758c2.6744-2.3574 6.0205-3.5352 9.3672-3.5352zm0.033203 4.168c2.2741-1e-6 4.5486 0.77006 6.4004 2.3125a0.83333 0.83333 0 0 1 0.10742 1.1738 0.83333 0.83333 0 0 1-1.1738 0.10742c-3.094-2.5771-7.574-2.5771-10.668 0a0.83333 0.83333 0 0 1-1.1738-0.10742 0.83333 0.83333 0 0 1 0.10742-1.1738c1.8518-1.5424 4.1263-2.3125 6.4004-2.3125zm-0.029297 4.1621c1.1841 0 2.3686 0.35842 3.3789 1.0762a0.83333 0.83333 0 0 1 0.19727 1.1621 0.83333 0.83333 0 0 1-1.1621 0.19726c-1.4475-1.0284-3.3787-1.0284-4.8262 0a0.83333 0.83333 0 0 1-1.1621-0.19726 0.83333 0.83333 0 0 1 0.19531-1.1621c1.0103-0.71776 2.1948-1.0762 3.3789-1.0762zm-0.003906 4.1641h0.007812a0.83333 0.83333 0 0 1 0.83398 0.83398 0.83333 0.83333 0 0 1-0.83398 0.83203h-0.007812a0.83333 0.83333 0 0 1-0.83398-0.83203 0.83333 0.83333 0 0 1 0.83398-0.83398z" fill="primary"/><path d="m26.395 11.746c1.662 0 3 1.338 3 3v2.7501h20.605c2.77 0 5 2.23 5 5v0.5918h-46v-8.3419c0-1.662 1.338-3 3-3z" fill="secondary"/></svg>
