<svg width="64" height="64" version="1.1" viewBox="0 0 64 64" xml:space="preserve" xmlns="http://www.w3.org/2000/svg"><path d="m7 24.016v24.865c0 2.77 2.23 5 5 5h40c2.77 0 5-2.23 5-5v-24.865h-50zm25 5.7656c5.0523 0 9.1652 4.112 9.166 9.1641a0.83333 0.83333 0 0 0 0 0.001954 0.83333 0.83333 0 0 1 0 0.003906c-7.75e-4 5.0521-4.1138 9.1641-9.166 9.1641-5.0523 0-9.1652-4.112-9.166-9.1641a0.83333 0.83333 0 0 1 0-0.003906 0.83333 0.83333 0 0 0 0-0.001954c7.75e-4 -5.0521 4.1138-9.1641 9.166-9.1641zm-1.8926 1.9062c-2.9704 0.76841-5.2194 3.3038-5.5625 6.4258h3.3301c0.18696-2.3033 0.95942-4.5134 2.2324-6.4258zm3.7852 0c1.273 1.9124 2.0455 4.1224 2.2324 6.4258h3.3301c-0.34309-3.122-2.5921-5.6574-5.5625-6.4258zm-1.8926 0.46875c-1.313 1.7565-2.2175 3.7831-2.4434 5.957h4.8867c-0.2259-2.174-1.1304-4.2005-2.4434-5.957zm-7.4551 7.625c0.34309 3.122 2.5921 5.6574 5.5625 6.4258-1.273-1.9124-2.0455-4.1224-2.2324-6.4258h-3.3301zm5.0117 0c0.2259 2.174 1.1304 4.2005 2.4434 5.957 1.313-1.7565 2.2175-3.7831 2.4434-5.957h-4.8867zm6.5684 0c-0.18696 2.3033-0.95942 4.5134-2.2324 6.4258 2.9704-0.76841 5.2194-3.3038 5.5625-6.4258h-3.3301z" fill="primary"/><path d="m26.395 11.746c1.662 0 3 1.338 3 3v2.7501h20.605c2.77 0 5 2.23 5 5v0.5918h-46v-8.3419c0-1.662 1.338-3 3-3z" fill="secondary"/></svg>
