<svg width="64" height="64" version="1.1" viewBox="0 0 64 64" xml:space="preserve" xmlns="http://www.w3.org/2000/svg"><path d="m7 24.016v24.865c0 2.77 2.23 5 5 5h40c2.77 0 5-2.23 5-5v-24.865h-50zm25 6.5996c2.2913 0 4.166 1.8747 4.166 4.166-1e-6 2.2913-1.8747 4.166-4.166 4.166s-4.166-1.8747-4.166-4.166c1e-6 -2.2913 1.8747-4.166 4.166-4.166zm0 1.666c-1.3906 1e-6 -2.5 1.1094-2.5 2.5 0 1.3906 1.1094 2.5 2.5 2.5s2.5-1.1094 2.5-2.5c0-1.3906-1.1094-2.5-2.5-2.5zm-3.334 8.334h6.668c2.2913-1e-6 4.166 1.8747 4.166 4.166v1.666a0.83333 0.83333 0 0 1-0.83398 0.83398 0.83333 0.83333 0 0 1-0.83203-0.83398v-1.666c0-1.3906-1.1094-2.5-2.5-2.5h-6.668c-1.3906 0-2.5 1.1094-2.5 2.5v1.666a0.83333 0.83333 0 0 1-0.83203 0.83398 0.83333 0.83333 0 0 1-0.83398-0.83398v-1.666c0-2.2913 1.8747-4.166 4.166-4.166z" fill="primary"/><path d="m26.395 11.746c1.662 0 3 1.338 3 3v2.7501h20.605c2.77 0 5 2.23 5 5v0.5918h-46v-8.3419c0-1.662 1.338-3 3-3z" fill="secondary"/></svg>
