<svg width="64" height="64" version="1.1" viewBox="0 0 64 64" xml:space="preserve" xmlns="http://www.w3.org/2000/svg"><path d="m7 24.016v24.865c0 2.77 2.23 5 5 5h40c2.77 0 5-2.23 5-5v-24.865h-50zm32.51 6.1309a0.83333 0.83333 0 0 1 0.58984 0.24414 0.83333 0.83333 0 0 1 0 1.1777l-1.0762 1.0781 1.9102 1.9102a0.83342 0.83342 0 0 1 0 1.1797l-2.918 2.916a0.83342 0.83342 0 0 1-1.1777 0l-1.9102-1.9102-2.3613 2.3613c0.81369 1.0734 1.2729 2.2464 1.209 3.3828-0.077778 1.3831-0.71703 2.6487-1.6621 3.5938-0.94508 0.94508-2.2126 1.5863-3.5957 1.6641-1.3831 0.077777-2.8629-0.44602-4.0898-1.6895a0.83342 0.83342 0 0 1-0.007812-0.00586c-1.187-1.2289-1.6753-2.6924-1.5859-4.0547 0.089344-1.3623 0.72129-2.608 1.6523-3.5391 0.93105-0.93105 2.1768-1.563 3.5391-1.6523 1.1193-0.073411 2.2797 0.3588 3.3496 1.1328l2.9629-2.9609 2.916-2.918 1.666-1.666a0.83333 0.83333 0 0 1 0.58984-0.24414zm-1.666 3.6797-1.7383 1.7383 1.3203 1.3203 1.7383-1.7383-1.3203-1.3203zm-9.3691 4.6328c-0.11466-0.0038-0.22822-0.00154-0.3418 0.00586-0.90982 0.059671-1.7961 0.49921-2.4668 1.1699-0.67071 0.67071-1.1103 1.5589-1.1699 2.4688-0.059594 0.90864 0.22464 1.8533 1.1211 2.7832 0.93248 0.94336 1.8882 1.2451 2.8086 1.1934 0.92157-0.051824 1.8252-0.49512 2.5078-1.1777 0.68261-0.68261 1.1259-1.5882 1.1777-2.5098 0.051759-0.92041-0.25-1.8742-1.1934-2.8066-0.81362-0.7844-1.6407-1.1002-2.4434-1.127z" fill="primary"/><path d="m26.395 11.746c1.662 0 3 1.338 3 3v2.7501h20.605c2.77 0 5 2.23 5 5v0.5918h-46v-8.3419c0-1.662 1.338-3 3-3z" fill="secondary"/></svg>
