<svg width="64" height="64" version="1.1" viewBox="0 0 64 64" xml:space="preserve" xmlns="http://www.w3.org/2000/svg"><path d="m7 24.016v24.865c0 2.77 2.23 5 5 5h40c2.77 0 5-2.23 5-5v-24.865h-50zm18.334 8.2656a0.83333 0.83333 0 0 1 0.58789 0.24414l5 5a0.83342 0.83342 0 0 1 0 1.1777l-5 5a0.83333 0.83333 0 0 1-1.1777 0 0.83333 0.83333 0 0 1 0-1.1777l4.4102-4.4102-4.4102-4.4121a0.83333 0.83333 0 0 1 0-1.1777 0.83333 0.83333 0 0 1 0.58984-0.24414zm6.666 11.666h6.666a0.83334 0.83334 0 0 1 0.83398 0.83398 0.83334 0.83334 0 0 1-0.83398 0.83398h-6.666a0.83334 0.83334 0 0 1-0.83398-0.83398 0.83334 0.83334 0 0 1 0.83398-0.83398z" fill="primary"/><path d="m26.395 11.746c1.662 0 3 1.338 3 3v2.7501h20.605c2.77 0 5 2.23 5 5v0.5918h-46v-8.3419c0-1.662 1.338-3 3-3z" fill="secondary"/></svg>
