<svg width="64" height="64" version="1.1" viewBox="0 0 64 64" xml:space="preserve" xmlns="http://www.w3.org/2000/svg"><path d="m7 24.016v24.865c0 2.77 2.23 5 5 5h40c2.77 0 5-2.23 5-5v-24.865h-50zm20 5.7656h10a0.83342 0.83342 0 0 1 0.83398 0.83398v5h0.83203c1.3708 0 2.5 1.1292 2.5 2.5v4.166c0 1.3708-1.1292 2.5-2.5 2.5h-0.83203v2.5a0.83342 0.83342 0 0 1-0.83398 0.83398h-10a0.83342 0.83342 0 0 1-0.83398-0.83398v-2.5h-0.83203c-1.3708 0-2.5-1.1292-2.5-2.5v-4.166c0-1.3708 1.1292-2.5 2.5-2.5h0.83203v-5a0.83342 0.83342 0 0 1 0.83398-0.83398zm0.83398 1.666v4.168h8.332v-4.168h-8.332zm-2.5 5.834c-0.47011 1e-6 -0.83398 0.36388-0.83398 0.83398v4.166c0 0.47011 0.36388 0.83398 0.83398 0.83398h0.83203v-2.5a0.83342 0.83342 0 0 1 0.83398-0.83398h10a0.83342 0.83342 0 0 1 0.83398 0.83398v2.5h0.83203c0.47011-1e-6 0.83398-0.36388 0.83398-0.83398v-4.166c0-0.47011-0.36388-0.83398-0.83398-0.83398h-1.666-10-1.666zm2.5 4.166v2.498a0.83334 0.83334 0 0 0 0 0.001954 0.83334 0.83334 0 0 0 0 0.001953v2.498h8.332v-2.498-0.003907-2.498h-8.332z" fill="primary"/><path d="m26.395 11.746c1.662 0 3 1.338 3 3v2.7501h20.605c2.77 0 5 2.23 5 5v0.5918h-46v-8.3419c0-1.662 1.338-3 3-3z" fill="secondary"/></svg>
