<svg width="64" height="64" version="1.1" viewBox="0 0 64 64" xml:space="preserve" xmlns="http://www.w3.org/2000/svg"><path d="m7 24.016v24.865c0 2.77 2.23 5 5 5h40c2.77 0 5-2.23 5-5v-24.865h-50zm25 10.357a4.5744 4.5744 0 0 1 4.5742 4.5742 3.0496 3.0496 0 0 1 3.0508-3.0488 3.0496 3.0496 0 0 1 3.0488 3.0488 3.0496 3.0496 0 0 1-3.0488 3.0508 3.0496 3.0496 0 0 1-3.0508-3.0508 4.5744 4.5744 0 0 1-4.5742 4.5762 4.5744 4.5744 0 0 1-4.5742-4.5762 3.0496 3.0496 0 0 1-3.0508 3.0508 3.0496 3.0496 0 0 1-3.0488-3.0508 3.0496 3.0496 0 0 1 3.0488-3.0488 3.0496 3.0496 0 0 1 3.0508 3.0488 4.5744 4.5744 0 0 1 4.5742-4.5742zm0 1.5254a3.0496 3.0496 0 0 0-3.0488 3.0488 3.0496 3.0496 0 0 0 3.0488 3.0508 3.0496 3.0496 0 0 0 3.0488-3.0508 3.0496 3.0496 0 0 0-3.0488-3.0488zm-7.625 1.5254a1.5248 1.5248 0 0 0-1.5234 1.5254 1.5248 1.5248 0 0 0 1.5234 1.5234 1.5248 1.5248 0 0 0 1.5254-1.5234 1.5248 1.5248 0 0 0-1.5254-1.5254zm15.25 0a1.5248 1.5248 0 0 0-1.5254 1.5254 1.5248 1.5248 0 0 0 1.5254 1.5234 1.5248 1.5248 0 0 0 1.5234-1.5234 1.5248 1.5248 0 0 0-1.5234-1.5254z" fill="primary"/><path d="m26.395 11.746c1.662 0 3 1.338 3 3v2.7501h20.605c2.77 0 5 2.23 5 5v0.5918h-46v-8.3419c0-1.662 1.338-3 3-3z" fill="secondary"/></svg>
