<svg width="64" height="64" version="1.1" viewBox="0 0 64 64" xml:space="preserve" xmlns="http://www.w3.org/2000/svg"><path d="m7 23.202v24.865c0 2.77 2.23 5 5 5h40c2.77 0 5-2.23 5-5v-24.865zm18.793 10.428c0.2442 0 0.47515 0.11144 0.62695 0.30274l1.4922 1.8262c1.1987-0.7073 2.5933-1.1191 4.0879-1.1191 1.4939 0 2.8899 0.41244 4.0879 1.1191l1.4922-1.8262c0.147-0.1843 0.36752-0.29438 0.60352-0.30078 0.69-0.0192 1.0788 0.78595 0.63476 1.3145l-1.4336 1.7539c1.441 1.2947 2.6152 3.1003 2.6152 5.1309 0 0.809-0.79688 0.80859-0.79688 0.80859h-14.426s-0.77734 4.69e-4 -0.77734-0.76953c0-2.0462 1.168-3.8653 2.6172-5.168l-1.4355-1.7559c-0.4394-0.5201-0.06967-1.3165 0.61133-1.3164zm2.207 5.0098c-0.5523 0-1 0.4477-1 1s0.4477 1 1 1 1-0.4477 1-1-0.4477-1-1-1zm8 0c-0.552 0-1 0.4477-1 1s0.448 1 1 1 1-0.4477 1-1-0.448-1-1-1z" fill="primary"/><path d="m26.395 10.932c1.662 0 3 1.338 3 3v2.7501h20.605c2.77 0 5 2.23 5 5v0.5918h-46v-8.3419c0-1.662 1.338-3 3-3z" fill="secondary"/></svg>
