<svg width="64" height="64" version="1.1" viewBox="0 0 64 64" xml:space="preserve" xmlns="http://www.w3.org/2000/svg"><path d="m7 24.016v24.865c0 2.77 2.23 5 5 5h40c2.77 0 5-2.23 5-5v-24.865h-50zm19.617 5.3398c0.19958-0.00549 0.46181 0.013287 0.78906 0.085937 0.57508 0.12767 1.4345 0.53597 2.4297 1.1523 1.8367-0.44043 3.7414-0.44043 5.5781 0 0.99522-0.61638 1.8546-1.0247 2.4297-1.1523 0.32725-0.07265 0.58948-0.091437 0.78906-0.085937 0.19958 0.00549 0.4043 0.05664 0.4043 0.05664a0.83342 0.83342 0 0 1 0.5293 0.4707c0.44902 1.0476 0.46112 2.2009 0.16797 3.293 0.75087 0.9452 1.2244 2.0844 1.2246 3.3008 0 2.4429-0.78721 4.1326-2 5.1523-0.86058 0.72363-1.87 1.0453-2.8789 1.2598 0.2132 0.51621 0.33457 1.0664 0.29492 1.6348v3.1875a0.83333 0.83333 0 0 1-0.83398 0.83203 0.83333 0.83333 0 0 1-0.83203-0.83203v-3.2246a0.83342 0.83342 0 0 1 0.001954-0.066406c0.044509-0.56578-0.15575-1.1218-0.55078-1.5293a0.83342 0.83342 0 0 1 0.50586-1.4082c1.2369-0.13788 2.4043-0.44245 3.2207-1.1289 0.81638-0.68646 1.4043-1.7698 1.4043-3.877-1.75e-4 -0.94988-0.36457-1.8628-1.0195-2.5508a0.83342 0.83342 0 0 1-0.17773-0.86523c0.23181-0.62113 0.096546-1.278-0.046875-1.916-0.41907 0.10757-1.047 0.32584-2.041 0.99219a0.83342 0.83342 0 0 1-0.68164 0.11133c-1.7673-0.47897-3.6312-0.47897-5.3984 0a0.83342 0.83342 0 0 1-0.68164-0.11133c-0.99405-0.66634-1.622-0.88462-2.041-0.99219-0.14342 0.63799-0.27868 1.2949-0.046875 1.916a0.83342 0.83342 0 0 1-0.17773 0.86523c-0.65985 0.69307-1.0246 1.6153-1.0195 2.5723a0.83342 0.83342 0 0 1 0 0.003906c0 2.0892 0.58588 3.1634 1.4043 3.8516s1.9896 1.0002 3.2305 1.1543a0.83342 0.83342 0 0 1 0.49609 1.4062c-0.39026 0.40327-0.59015 0.95387-0.55078 1.5137a0.83342 0.83342 0 0 1 0.001954 0.058594v3.2246a0.83333 0.83333 0 0 1-0.83203 0.83203 0.83333 0.83333 0 0 1-0.83398-0.83203v-1.625c-0.62274 0.082419-1.2987 0.24608-1.791 0.13086-0.78703-0.1842-1.3836-0.60824-1.8184-1.043s-0.73728-0.87782-0.99609-1.1816-0.43267-0.4319-0.5957-0.47266a0.83333 0.83333 0 0 1-0.60742-1.0117 0.83333 0.83333 0 0 1 1.0098-0.60547c0.6703 0.16758 1.1208 0.61046 1.4609 1.0098 0.34014 0.3993 0.61182 0.78955 0.90625 1.084 0.29443 0.29443 0.5826 0.4954 1.0195 0.59766 0.31057 0.072686 0.87827-0.032946 1.4258-0.12891-0.026121-0.54298 0.080491-1.0679 0.28516-1.5605-1.01-0.2225-2.0204-0.55018-2.8828-1.2754-1.21-1.0174-1.999-2.698-2-5.123v-0.001953-0.001953c-0.005619-1.2246 0.46895-2.3724 1.2246-3.3242-0.29374-1.0926-0.28131-2.2467 0.16797-3.2949a0.83342 0.83342 0 0 1 0.5293-0.4707s0.20472-0.05114 0.4043-0.05664z" fill="primary"/><path d="m26.395 11.746c1.662 0 3 1.338 3 3v2.7501h20.605c2.77 0 5 2.23 5 5v0.5918h-46v-8.3419c0-1.662 1.338-3 3-3z" fill="secondary"/></svg>
