<svg width="64" height="64" version="1.1" viewBox="0 0 64 64" xml:space="preserve" xmlns="http://www.w3.org/2000/svg"><path d="m7 24.016v24.865c0 2.77 2.23 5 5 5h40c2.77 0 5-2.23 5-5v-24.865h-50zm25.119 7.9434c5.4102 0.29509 5.0963 6.2358 5.0605 9.4746h0.001953c-0.019 1.7473 0.91361 3.1161 1.8184 4.5137h-3.7695c-0.31675-0.8579-0.60211-1.7165-0.81055-2.4805-0.05083 0.06029-0.10556 0.11828-0.16406 0.17578-0.3742 0.3686-0.87428 0.65852-1.4473 0.83789-0.20161 0.06585-0.41605 0.20251-0.66406 0.36133-0.5177 0.33121-1.1616 0.74414-2.1035 0.74414-0.06155 0-0.125 9.3e-5 -0.1875-0.003907-0.93137-0.05438-1.4078-0.48999-1.8281-0.87305-0.17987-0.16392-0.3492-0.31909-0.54688-0.43555-0.12148-0.068761-0.23541-0.13869-0.3418-0.21289-0.05753 0.6075-0.19168 1.2444-0.37305 1.8887h-1.7637c0.57312-1.5203 0.97825-3.0142 1.0645-4.2363 0.0973-2.3103-1.6352-9.2088 4.8945-9.7344 0.41335-0.03298 0.79948-0.039202 1.1602-0.019532zm0.33398 5.1152c-1.0138 0.0275-1.8136 1.1076-1.7871 2.4121 0 0.0271 0.002906 0.055131 0.003906 0.082031 0.27325 0.05843 0.55209 0.15266 0.83594 0.2832-3e-4 -0.023199-5.2e-4 -0.046912 0-0.070312 0.01539-0.71599 0.4024-1.2959 0.86328-1.2949 0.4608 0.0011 0.82204 0.58275 0.80664 1.2988v0.001953c-0.00632 0.29422-0.07651 0.56398-0.1875 0.78125 0.20103 0.07003 0.44386 0.15783 0.74609 0.28711 0.06522 0.027 0.1274 0.055737 0.1875 0.085937 0.2695-0.4212 0.42802-0.96478 0.41602-1.5547-0.0266-1.3044-0.87107-2.34-1.8848-2.3125zm-4.5527 0.36133c-0.73025 0.0424-1.27 0.99174-1.2051 2.1191 0.033271 0.57842 0.22037 1.0905 0.49219 1.4473 0.09972-0.07344 0.1821-0.13399 0.25-0.18359 0.09053-0.066185 0.16947-0.12263 0.19727-0.14453-0.11176-0.18884-0.19155-0.43776-0.21875-0.7168v-0.001953c-0.06246-0.63995 0.17781-1.1945 0.53711-1.2383 0.35929-0.0438 0.70117 0.44015 0.76367 1.0801 0.001047 0.0084 0.001243 0.017391 0.001953 0.025391 0.18704-0.0983 0.39557-0.18204 0.62695-0.24024 0-0.05958-0.002859-0.12084-0.005859-0.18164-0.0649-1.1274-0.7092-2.0073-1.4395-1.9648zm2.125 2.8574c-0.85841 0-1.4177 0.54411-1.752 0.86914-0.033301 0.0324-0.06515 0.062644-0.09375 0.089844-0.04009 0.03812-0.094198 0.077894-0.27344 0.20898-0.16141 0.11807-0.40536 0.29728-0.76953 0.57031-0.1674 0.12553-0.24588 0.27762-0.23438 0.45508 0.02319 0.357 0.38683 0.76811 0.9707 1.0977l0.005859 0.001954c0.27052 0.15867 0.47872 0.35018 0.68164 0.53516 0.3847 0.35055 0.69021 0.62802 1.3398 0.66602 0.046885 0.002994 0.094125 0.003907 0.14062 0.003907 0.70924 0 1.2009-0.31535 1.6758-0.61914 0.28268-0.18088 0.54827-0.35017 0.84766-0.44727l0.003906-0.001953c0.72019-0.225 1.4994-0.78496 1.5254-1.3809 0.01687-0.38787-0.35324-0.62343-0.66602-0.75195l-0.003906-0.001953c-0.33529-0.14358-0.58576-0.23034-0.80664-0.30664-0.32124-0.11091-0.57565-0.19701-0.86719-0.38672-0.619-0.3979-1.1996-0.60156-1.7246-0.60156zm-2.1504 1.6387c0.076789-1.04e-4 0.15447 0.022197 0.22266 0.068359 0.2951 0.19969 0.96608 0.42808 1.8008 0.48828 0.6998 0.05053 1.741 0.056346 2.8613-0.46484 0.19914-0.092481 0.4367-0.005842 0.5293 0.19336 0.092611 0.19912 0.005731 0.43464-0.19336 0.52734-1.0363 0.48197-2.0049 0.55469-2.7676 0.55469-0.17566 0-0.33972-0.006878-0.48828-0.017578-0.8763-0.06325-1.7151-0.30195-2.1895-0.62305-0.1819-0.1231-0.22857-0.37087-0.10547-0.55273 0.061565-0.090955 0.15398-0.14677 0.25391-0.16602 0.024983-0.004813 0.050576-0.007778 0.076172-0.007812z" fill="primary"/><path d="m26.395 11.746c1.662 0 3 1.338 3 3v2.7501h20.605c2.77 0 5 2.23 5 5v0.5918h-46v-8.3419c0-1.662 1.338-3 3-3z" fill="secondary"/></svg>
