<svg width="64" height="64" version="1.1" viewBox="0 0 64 64" xml:space="preserve" xmlns="http://www.w3.org/2000/svg"><path d="m4.9922 23.203 1.9375 24.865c0.21525 2.7616 2.23 5 5 5h40c2.77 0 5-2.23 5-5l2.0801-24.865h-54.018zm19.508 8.2656h9.166c1.3706 0 2.5 1.1294 2.5 2.5v2.5469l4.5156-3.2266a0.83342 0.83342 0 0 1 0.86523-0.0625 0.83342 0.83342 0 0 1 0.45312 0.74219v8.332a0.83342 0.83342 0 0 1-1.3184 0.67969l-4.5156-3.2246v2.5449c0 1.3706-1.1294 2.5-2.5 2.5h-9.166c-1.3706 0-2.5-1.1294-2.5-2.5v-8.332c0-1.3706 1.1294-2.5 2.5-2.5zm0 1.666c-0.47608 0-0.83398 0.3579-0.83398 0.83398v8.332c0 0.47608 0.3579 0.83398 0.83398 0.83398h9.166c0.47608 0 0.83398-0.35791 0.83398-0.83398v-4.1172a0.83342 0.83342 0 0 1 0-0.097656v-4.1172c0-0.47608-0.3579-0.83398-0.83398-0.83398h-9.166zm15.834 2.4551-3.5645 2.5449 3.5645 2.5449v-5.0898z" fill="primary"/><path d="m26.395 10.932c1.662 0 3 1.338 3 3v2.7501h20.605c2.77 0 5 2.23 5 5v0.5918h-46v-8.3419c0-1.662 1.338-3 3-3z" fill="secondary"/></svg>
