<svg width="64" height="64" version="1.1" viewBox="0 0 64 64" xml:space="preserve" xmlns="http://www.w3.org/2000/svg"><path d="m7 23.203v24.865c0 2.77 2.23 5 5 5h40c2.77 0 5-2.23 5-5v-24.865h-50zm26.633 5.7656h0.033204a0.83342 0.83342 0 0 1 0.10938 0.007812 0.83333 0.83333 0 0 1 0.005859 0 0.83342 0.83342 0 0 1 0.037109 0.007813 0.83342 0.83342 0 0 1 0.074219 0.015625 0.83342 0.83342 0 0 1 0.091797 0.03125 0.83333 0.83333 0 0 1 0.003906 0.001953 0.83333 0.83333 0 0 1 0.074219 0.035156 0.83342 0.83342 0 0 1 0.021484 0.011719 0.83333 0.83333 0 0 1 0.003907 0.001953 0.83333 0.83333 0 0 1 0.05664 0.039063 0.83342 0.83342 0 0 1 0.029297 0.019531 0.83333 0.83333 0 0 1 0.019531 0.017578 0.83342 0.83342 0 0 1 0.0625 0.054688 0.83333 0.83333 0 0 1 0.021485 0.021484l4.957 4.957 0.021484 0.021485a0.83333 0.83333 0 0 1 0.011719 0.013671 0.83333 0.83333 0 0 1 0.058594 0.066407 0.83342 0.83342 0 0 1 0.001953 0.003906 0.83333 0.83333 0 0 1 0.007813 0.011719 0.83333 0.83333 0 0 1 0.048828 0.072265 0.83342 0.83342 0 0 1 0.003906 0.00586 0.83333 0.83333 0 0 1 0.041016 0.083984 0.83342 0.83342 0 0 1 0.005859 0.013672 0.83333 0.83333 0 0 1 0.011719 0.037109 0.83333 0.83333 0 0 1 0.023437 0.066407 0.83333 0.83333 0 0 1 0.021485 0.10156 0.83342 0.83342 0 0 1 0 0.003906 0.83333 0.83333 0 0 1 0.007812 0.10938v10c0 1.3708-1.1292 2.5-2.5 2.5h-10c-1.3708 2e-6 -2.5-1.1292-2.5-2.5v-13.332c0-1.3708 1.1292-2.5 2.5-2.5l6.6328-0.001953zm-6.6328 1.668c-0.47011-1e-6 -0.83398 0.36388-0.83398 0.83398v13.332c0 0.47011 0.36387 0.83399 0.83398 0.83398h10c0.47011 1e-6 0.83398-0.36388 0.83398-0.83398v-9.166h-4.168a0.83342 0.83342 0 0 1-0.83203-0.83398v-4.166h-5.834zm7.5 1.1777v2.1562h2.1562l-2.1562-2.1562zm-5.834 2.9883h0.83398 0.83398a0.83333 0.83333 0 0 1 0.83203 0.83398 0.83333 0.83333 0 0 1-0.83203 0.83398h-0.83398-0.83398a0.83333 0.83333 0 0 1-0.83203-0.83398 0.83333 0.83333 0 0 1 0.83203-0.83398zm0 3.334h6.668a0.83333 0.83333 0 0 1 0.83203 0.83398 0.83333 0.83333 0 0 1-0.83203 0.83203h-6.668a0.83333 0.83333 0 0 1-0.83203-0.83203 0.83333 0.83333 0 0 1 0.83203-0.83398zm0 3.334h6.668a0.83333 0.83333 0 0 1 0.83203 0.83203 0.83333 0.83333 0 0 1-0.83203 0.83398h-6.668a0.83333 0.83333 0 0 1-0.83203-0.83398 0.83333 0.83333 0 0 1 0.83203-0.83203z" fill="primary"/><path d="m26.395 10.932c1.662 0 3 1.338 3 3v2.7501h20.605c2.77 0 5 2.23 5 5v0.5918h-46v-8.3419c0-1.662 1.338-3 3-3z" fill="secondary"/></svg>
