<svg width="64" height="64" version="1.1" viewBox="0 0 64 64" xml:space="preserve" xmlns="http://www.w3.org/2000/svg"><path d="m7 23.203v24.865c0 2.77 2.23 5 5 5h40c2.77 0 5-2.23 5-5v-24.865h-50zm22.422 5.7676c3.0375-0.00309 5.8739 1.9317 6.9941 4.9941h0.58203c2.6349 0.0031 4.45 1.8775 4.8887 3.9785 0.43864 2.1011-0.47513 4.5445-2.8887 5.6016a0.83333 0.83333 0 0 1-1.0977-0.42773 0.83333 0.83333 0 0 1 0.42969-1.0977c1.7177-0.75229 2.2258-2.2994 1.9258-3.7363-0.29987-1.4364-1.384-2.6474-3.2578-2.6504h-1.0508a0.83342 0.83342 0 0 1-0.80664-0.625c-1.0018-3.8794-5.4553-5.6172-8.8184-3.4395-3.363 2.1778-3.6007 6.9539-0.4707 9.4551a0.83333 0.83333 0 0 1 0.13086 1.1699 0.83333 0.83333 0 0 1-1.1719 0.13086c-3.9805-3.1808-3.6714-9.3848 0.60547-12.154 1.0692-0.69239 2.2326-1.071 3.3965-1.1719 0.20384-0.0173 0.40687-0.025191 0.60938-0.025391v-0.001953zm-0.75781 11.664h0.007813a0.83333 0.83333 0 0 1 0.83398 0.83203 0.83333 0.83333 0 0 1-0.83398 0.83398h-0.007813a0.83333 0.83333 0 0 1-0.83398-0.83398 0.83333 0.83333 0 0 1 0.83398-0.83203zm6.666 0h0.009766a0.83333 0.83333 0 0 1 0.83203 0.83203 0.83333 0.83333 0 0 1-0.83203 0.83398h-0.009766a0.83333 0.83333 0 0 1-0.83203-0.83398 0.83333 0.83333 0 0 1 0.83203-0.83203zm-3.332 1.666h0.007812a0.83333 0.83333 0 0 1 0.83398 0.83398 0.83333 0.83333 0 0 1-0.83398 0.83203h-0.007812a0.83333 0.83333 0 0 1-0.83398-0.83203 0.83333 0.83333 0 0 1 0.83398-0.83398zm-3.334 1.666h0.007813a0.83333 0.83333 0 0 1 0.83398 0.83398 0.83333 0.83333 0 0 1-0.83398 0.83398h-0.007813a0.83333 0.83333 0 0 1-0.83398-0.83398 0.83333 0.83333 0 0 1 0.83398-0.83398zm6.666 0h0.009766a0.83333 0.83333 0 0 1 0.83203 0.83398 0.83333 0.83333 0 0 1-0.83203 0.83398h-0.009766a0.83333 0.83333 0 0 1-0.83203-0.83398 0.83333 0.83333 0 0 1 0.83203-0.83398zm-3.332 1.668h0.007812a0.83333 0.83333 0 0 1 0.83398 0.83203 0.83333 0.83333 0 0 1-0.83398 0.83398h-0.007812a0.83333 0.83333 0 0 1-0.83398-0.83398 0.83333 0.83333 0 0 1 0.83398-0.83203z" fill="primary"/><path d="m26.395 10.932c1.662 0 3 1.338 3 3v2.7501h20.605c2.77 0 5 2.23 5 5v0.5918h-46v-8.3419c0-1.662 1.338-3 3-3z" fill="secondary"/></svg>
