<svg width="64" height="64" version="1.1" viewBox="0 0 64 64" xml:space="preserve" xmlns="http://www.w3.org/2000/svg"><path d="m7 24.016v24.865c0 2.77 2.23 5 5 5h40c2.77 0 5-2.23 5-5v-24.865h-50zm19.166 6.5996h11.668c1.3706 0 2.5 1.1294 2.5 2.5v8.332 3.334c0 1.3706-1.1294 2.5-2.5 2.5h-11.668c-1.3706 0-2.5-1.1294-2.5-2.5v-11.666c0-1.3706 1.1294-2.5 2.5-2.5zm0 1.666c-0.47608 0-0.83203 0.3579-0.83203 0.83398v11.666c0 0.37125 0.21603 0.67183 0.53711 0.78516l8.873-8.873a0.83342 0.83342 0 0 1 1.1777 0l2.7441 2.7402v-6.3184c0-0.47608-0.35595-0.83398-0.83203-0.83398h-11.668zm2.918 1.666c1.1407 0 2.082 0.94326 2.082 2.084 0 1.1407-0.94131 2.084-2.082 2.084-1.1407 0-2.084-0.94326-2.084-2.084 0-1.1407 0.94326-2.084 2.084-2.084zm0 1.668c-0.23999 0-0.41797 0.17603-0.41797 0.41602 0 0.23999 0.17798 0.41602 0.41797 0.41602 0.23999 0 0.41602-0.17603 0.41602-0.41602 0-0.23999-0.17603-0.41602-0.41602-0.41602zm6.25 2.8457-7.1543 7.1543h9.6543c0.47608 0 0.83203-0.3579 0.83203-0.83398v-2.9883l-3.332-3.332z" fill="primary"/><path d="m26.395 11.746c1.662 0 3 1.338 3 3v2.7501h20.605c2.77 0 5 2.23 5 5v0.5918h-46v-8.3419c0-1.662 1.338-3 3-3z" fill="secondary"/></svg>
