<svg width="64" height="64" version="1.1" viewBox="0 0 64 64" xml:space="preserve" xmlns="http://www.w3.org/2000/svg"><path d="m7 24.016v24.865c0 2.77 2.23 5 5 5h40c2.77 0 5-2.23 5-5v-24.865h-50zm20 6.5996c1.8311 0 3.334 1.5029 3.334 3.334 0 1.5435-1.0679 2.853-2.5 3.2266v9.2734a0.83333 0.83333 0 0 1-0.83398 0.83398 0.83333 0.83333 0 0 1-0.83398-0.83398v-9.2734c-1.4321-0.37354-2.5-1.6831-2.5-3.2266 0-1.8311 1.5029-3.334 3.334-3.334zm0 1.668c-0.93034 0-1.666 0.73567-1.666 1.666 0 0.93005 0.73609 1.6656 1.666 1.666 0.92993-4.65e-4 1.666-0.73596 1.666-1.666 0-0.93034-0.73567-1.666-1.666-1.666zm5.834 0.83203h2.5c1.3708-1e-6 2.5 1.1292 2.5 2.5v5.1074c1.4321 0.37354 2.5 1.6831 2.5 3.2266 0 1.8311-1.5029 3.334-3.334 3.334s-3.334-1.5029-3.334-3.334c0-1.5435 1.0679-2.853 2.5-3.2266v-5.1074c0-0.47011-0.36192-0.83203-0.83203-0.83203h-2.5a0.83333 0.83333 0 0 1-0.83398-0.83398 0.83333 0.83333 0 0 1 0.83398-0.83398zm4.166 9.168c-0.92993 4.65e-4 -1.666 0.73597-1.666 1.666 0 0.93034 0.73567 1.666 1.666 1.666s1.666-0.73567 1.666-1.666c0-0.93005-0.73609-1.6656-1.666-1.666z" fill="primary"/><path d="m26.395 11.746c1.662 0 3 1.338 3 3v2.7501h20.605c2.77 0 5 2.23 5 5v0.5918h-46v-8.3419c0-1.662 1.338-3 3-3z" fill="secondary"/></svg>
