<svg width="64" height="64" version="1.1" viewBox="0 0 64 64" xml:space="preserve" xmlns="http://www.w3.org/2000/svg"><path d="m7 24.016v24.865c0 2.77 2.23 5 5 5h40c2.77 0 5-2.23 5-5v-24.865zm11.801 7.25h5.9043l-0.13672 1.0215c-0.04538 0.33466-0.06844 0.67205-0.06836 1.0098-5.63e-4 4.1543 3.3477 7.5025 7.502 7.502 4.1536-4.03e-4 7.5006-3.3484 7.5-7.502 8e-5 -0.33772-0.02299-0.67511-0.06836-1.0098l-0.13672-1.0215h5.9043l0.07617 0.81836c0.03726 0.40317 0.05621 0.808 0.05664 1.2129 8.18e-4 7.3529-5.9792 13.334-13.332 13.334-7.3537 8.18e-4 -13.335-5.9803-13.334-13.334 4.2e-4 -0.40489 0.01938-0.80972 0.05664-1.2129l0.07617-0.81836zm1.6777 1.8008c-0.0017 0.07691-0.01164 0.15353-0.01172 0.23047-6.76e-4 6.075 4.6705 11.037 10.625 11.498v-2.2383c-4.7032-0.45784-8.3952-4.4389-8.3945-9.2598 0-0.07709 0.01373-0.15343 0.01563-0.23047h-2.2344zm20.809 0c0.0019 0.07704 0.01564 0.15338 0.01563 0.23047 6.53e-4 4.82-3.6903 8.7989-8.3926 9.2578v2.2402c5.9537-0.4618 10.624-5.4237 10.623-11.498-1.01e-4 -0.07694-0.0082-0.15356-0.0098-0.23047h-2.2363z" fill="primary"/><path d="m26.395 11.746c1.662 0 3 1.338 3 3v2.7501h20.605c2.77 0 5 2.23 5 5v0.5918h-46v-8.3419c0-1.662 1.338-3 3-3z" fill="secondary"/></svg>
