<svg width="64" height="64" version="1.1" viewBox="0 0 64 64" xml:space="preserve" xmlns="http://www.w3.org/2000/svg"><path d="m7 24.016v24.865c0 2.77 2.23 5 5 5h40c2.77 0 5-2.23 5-5v-24.865h-50zm26.5 9.9316c2.209 0 4 1.7909 4 4-1e-3 0.0573-0.003813 0.11488-0.007812 0.17188 1.202 0.4211 2.0068 1.5548 2.0078 2.8281 0 1.657-1.343 3-3 3h-9c-1.6569 0-3-1.343-3-3 0.0014-1.28 0.81479-2.4161 2.0254-2.832 0.167-1.2393 1.2241-2.168 2.4746-2.168 0.3222 7e-4 0.64115 0.063746 0.93945 0.18555 0.6818-1.3396 2.0573-2.1855 3.5605-2.1855zm0 1.998c-0.7529 0-1.4343 0.42366-1.7773 1.0977a2.0002 2.0002 0 0 1-2.5391 0.94141c-0.0585-0.024-0.12059-0.036409-0.18359-0.037109-0.2624 0-0.45669 0.17245-0.49219 0.43555a2.0002 2.0002 0 0 1-1.332 1.625c-0.4097 0.1408-0.67213 0.50871-0.67383 0.94141 0.0013 0.575 0.42295 0.99805 0.99805 0.99805h9c0.575 0 0.999-0.42305 1-0.99805 0-0.4317-0.26288-0.7968-0.66992-0.93945a2.0002 2.0002 0 0 1-1.334-2.0215c0.001047-0.014 9.53e-4 -0.028968 0.001953-0.042969-2e-3 -1.1259-0.87105-1.9961-1.998-1.9961v-0.003907z" fill="primary"/><path d="m26.395 11.746c1.662 0 3 1.338 3 3v2.7501h20.605c2.77 0 5 2.23 5 5v0.5918h-46v-8.3419c0-1.662 1.338-3 3-3z" fill="secondary"/></svg>
