<svg width="64" height="64" version="1.1" viewBox="0 0 64 64" xml:space="preserve" xmlns="http://www.w3.org/2000/svg"><path d="m7 24.016v24.865c0 2.77 2.23 5 5 5h40c2.77 0 5-2.23 5-5v-24.865h-50zm25 9.4316a5 5 0 0 1 4.5781 3.0039 2.5 2.5 0 0 1 2.4219 2.4961 2.5 2.5 0 0 1-0.17773 0.91992 2.4762 2.4762 0 0 1 1.1777 2.1055 2.4762 2.4762 0 0 1-2.4766 2.4766h-9.5234-0.19141v-0.011719a4 4 0 0 1-3.8086-3.9902 4 4 0 0 1 3.3965-3.9512 5 5 0 0 1 4.6035-3.0488zm-2 3v1 1 1 3h1v-3h2 1v-1-1-1h-1-2-1zm1 1h2v1h-2v-1z" fill="primary"/><path d="m26.395 11.746c1.662 0 3 1.338 3 3v2.7501h20.605c2.77 0 5 2.23 5 5v0.5918h-46v-8.3419c0-1.662 1.338-3 3-3z" fill="secondary"/></svg>
