<svg width="64" height="64" version="1.1" viewBox="0 0 64 64" xml:space="preserve" xmlns="http://www.w3.org/2000/svg"><path d="m5.0625 23.203 1.9375 24.865c0.21525 2.7616 2.23 5 5 5h40c2.77 0 5-2.23 5-5l2.0801-24.865h-54.018zm21.174 6.5977h11.668c1.3706 0 2.5 1.1294 2.5 2.5v8.334 3.334c0 1.3706-1.1294 2.5-2.5 2.5h-11.668c-1.3706 0-2.5-1.1294-2.5-2.5v-11.668c0-1.3706 1.1294-2.5 2.5-2.5zm0 1.668c-0.47608 0-0.83203 0.35595-0.83203 0.83203v11.668c0 0.37125 0.21603 0.66988 0.53711 0.7832l8.873-8.873a0.83342 0.83342 0 0 1 1.1777 0l2.7441 2.7422v-6.3203c0-0.47608-0.35595-0.83203-0.83203-0.83203h-11.668zm2.918 1.666c1.1407 0 2.082 0.94326 2.082 2.084 0 1.1407-0.94131 2.082-2.082 2.082-1.1407 0-2.084-0.94131-2.084-2.082 0-1.1407 0.94326-2.084 2.084-2.084zm0 1.666c-0.23999 0-0.41797 0.17798-0.41797 0.41797 0 0.23999 0.17798 0.41602 0.41797 0.41602 0.23999 0 0.41602-0.17603 0.41602-0.41602 0-0.23999-0.17603-0.41797-0.41602-0.41797zm6.25 2.8457-7.1543 7.1543h9.6543c0.47608 0 0.83203-0.35595 0.83203-0.83203v-2.9883l-3.332-3.334z" fill="primary"/><path d="m26.395 10.932c1.662 0 3 1.338 3 3v2.7501h20.605c2.77 0 5 2.23 5 5v0.5918h-46v-8.3419c0-1.662 1.338-3 3-3z" fill="secondary"/></svg>
