<svg width="64" height="64" version="1.1" viewBox="0 0 64 64" xml:space="preserve" xmlns="http://www.w3.org/2000/svg"><path d="m7 24.016v24.865c0 2.77 2.23 5 5 5h40c2.77 0 5-2.23 5-5v-24.865h-50zm24.043 7.9336a1.0001 1.0001 0 0 1 0.89844 0.66211l1.4766 4.1328 0.625-2.084a1.0001 1.0001 0 0 1 1.9062-0.027344l1.7715 5.3145h2.2793v2h-3a1.0001 1.0001 0 0 1-0.94922-0.68359l-1.002-3.0039-0.5918 1.9766a1.0001 1.0001 0 0 1-1.8984 0.048828l-1.2051-3.375-1.3672 8.2031a1.0001 1.0001 0 0 1-1.957 0.078125l-1.8105-7.2422h-2.2188v-2h3a1.0001 1.0001 0 0 1 0.9707 0.75586l0.83398 3.334 1.209-7.2559a1.0001 1.0001 0 0 1 0.89844-0.83008 1.0001 1.0001 0 0 1 0.13086-0.003906z" fill="primary"/><path d="m26.395 11.746c1.662 0 3 1.338 3 3v2.7501h20.605c2.77 0 5 2.23 5 5v0.5918h-46v-8.3419c0-1.662 1.338-3 3-3z" fill="secondary"/></svg>
