<svg width="64" height="64" version="1.1" viewBox="0 0 64 64" xml:space="preserve" xmlns="http://www.w3.org/2000/svg"><path d="m7 24.016v24.865c0 2.77 2.23 5 5 5h40c2.77 0 5-2.23 5-5v-24.865h-50zm25.658 5.7676c0.48734 0.036127 0.97159 0.11029 1.4453 0.2207 3.7898 0.88333 7.0817 4.141 7.082 8.9258v0.83398c0 1.0417-0.41998 1.9287-1.0605 2.498s-1.4613 0.83594-2.2715 0.83594c-0.81019 0-1.6329-0.26654-2.2734-0.83594-0.17646-0.15685-0.3358-0.33742-0.47461-0.53906-0.76369 0.84336-1.8659 1.375-3.0859 1.375-2.2913 0-4.166-1.8767-4.166-4.168-1e-6 -2.2913 1.8747-4.166 4.166-4.166 0.93598 0 1.8024 0.31359 2.5 0.83984v-0.00586a0.83333 0.83333 0 0 1 0.83398-0.83398 0.83333 0.83333 0 0 1 0.83203 0.83398v3.332 0.83398c0 0.625 0.20502 0.98801 0.50195 1.252s0.7262 0.41406 1.166 0.41406c0.43981 0 0.86713-0.15012 1.1641-0.41406 0.29693-0.26394 0.50195-0.62695 0.50195-1.252v-0.83398c-2.54e-4 -4.0351-2.6582-6.5716-5.7949-7.3027-3.1367-0.7311-6.6431 0.36962-8.4277 3.9844-1.7846 3.6148-0.52674 7.0676 1.9609 9.1133 2.4877 2.0457 6.1187 2.6135 9.3223 0.16016a0.83333 0.83333 0 0 1 1.168 0.15625 0.83333 0.83333 0 0 1-0.1543 1.168c-3.7988 2.9091-8.3889 2.2744-11.395-0.19726-3.0057-2.4716-4.5132-6.8513-2.3965-11.139 1.5875-3.2155 4.4546-4.8435 7.3887-5.084 0.48901-0.04012 0.97945-0.041989 1.4668-0.005859zm-0.63867 6.6465c-1.3906 0-2.5 1.1094-2.5 2.5 0 1.3906 1.1094 2.5 2.5 2.5 1.3906 0 2.5-1.1094 2.5-2.5 1e-6 -1.3906-1.1094-2.5-2.5-2.5z" fill="primary"/><path d="m26.395 11.746c1.662 0 3 1.338 3 3v2.7501h20.605c2.77 0 5 2.23 5 5v0.5918h-46v-8.3419c0-1.662 1.338-3 3-3z" fill="secondary"/></svg>
