<svg width="64" height="64" version="1.1" viewBox="0 0 64 64" xml:space="preserve" xmlns="http://www.w3.org/2000/svg"><path d="m7 24.016v24.865c0 2.77 2.23 5 5 5h40c2.77 0 5-2.23 5-5v-24.865h-50zm22.5 6.5996h5a0.83342 0.83342 0 0 1 0.69336 0.36914l1.4199 2.1309h2.8867c1.3708-1e-6 2.5 1.1292 2.5 2.5v9.166c0 1.3708-1.1292 2.5-2.5 2.5h-15c-1.3708 1e-6 -2.5-1.1292-2.5-2.5v-9.166c0-1.3708 1.1292-2.5 2.5-2.5h2.8867l1.4199-2.1309a0.83342 0.83342 0 0 1 0.69336-0.36914zm0.44531 1.666-1.418 2.1309a0.83342 0.83342 0 0 1-0.69336 0.36914h-3.334c-0.47011 0-0.83398 0.36388-0.83398 0.83398v9.166c0 0.47011 0.36388 0.83398 0.83398 0.83398h15c0.47011 0 0.83398-0.36388 0.83398-0.83398v-9.166c0-0.47011-0.36388-0.83398-0.83398-0.83398h-3.334a0.83342 0.83342 0 0 1-0.69336-0.36914l-1.418-2.1309h-4.1094zm2.0547 3.334c2.2913 0 4.166 1.8747 4.166 4.166-1e-6 2.2913-1.8747 4.166-4.166 4.166s-4.166-1.8747-4.166-4.166c1e-6 -2.2913 1.8747-4.166 4.166-4.166zm0 1.666c-1.3906 1e-6 -2.5 1.1094-2.5 2.5 0 1.3906 1.1094 2.5 2.5 2.5s2.5-1.1094 2.5-2.5c0-1.3906-1.1094-2.5-2.5-2.5z" fill="primary"/><path d="m26.395 11.746c1.662 0 3 1.338 3 3v2.7501h20.605c2.77 0 5 2.23 5 5v0.5918h-46v-8.3419c0-1.662 1.338-3 3-3z" fill="secondary"/></svg>
