<svg width="64" height="64" version="1.1" viewBox="0 0 64 64" xml:space="preserve" xmlns="http://www.w3.org/2000/svg"><path d="m7 18.016v24.866c0 2.77 2.23 5 5 5h40c2.77 0 5-2.23 5-5v-24.866h-50zm17 6.9316a1 1 0 0 1 0.70703 0.29297l6 6a1.0001 1.0001 0 0 1 0 1.4141l-6 6a1 1 0 0 1-1.4141 0 1 1 0 0 1 0-1.4141l5.293-5.293-5.293-5.293a1 1 0 0 1 0-1.4141 1 1 0 0 1 0.70703-0.29297zm8 14h8a1 1 0 0 1 1 1 1 1 0 0 1-1 1h-8a1 1 0 0 1-1-1 1 1 0 0 1 1-1z" fill="secondary"/><path d="m12 11.746c-2.77 0-5 2.23-5 5v0.3418h50v-0.3418c0-2.77-2.23-5-5-5zm0.19336 1.6875c0.54251 1.6e-4 0.98226 0.43991 0.98242 0.98242 9.23e-4 0.54328-0.43914 0.98422-0.98242 0.98438-0.54328-1.6e-4 -0.98334-0.4411-0.98242-0.98438 1.6e-4 -0.54251 0.43991-0.98226 0.98242-0.98242zm3.0723 0c0.54251 1.6e-4 0.98226 0.43991 0.98242 0.98242 9.23e-4 0.54328-0.43914 0.98422-0.98242 0.98438-0.54404 9.25e-4 -0.9853-0.44034-0.98438-0.98438 1.6e-4 -0.54328 0.4411-0.98334 0.98438-0.98242zm15.199 0c0.54251 1.6e-4 0.98226 0.43991 0.98242 0.98242 9.23e-4 0.54328-0.43914 0.98422-0.98242 0.98438-0.54328-1.6e-4 -0.98334-0.4411-0.98242-0.98438 1.6e-4 -0.54251 0.43991-0.98226 0.98242-0.98242zm3.0703 0c0.54251 1.6e-4 0.98226 0.43991 0.98242 0.98242 9.23e-4 0.54328-0.43914 0.98422-0.98242 0.98438-0.54328-1.6e-4 -0.98334-0.4411-0.98242-0.98438 1.6e-4 -0.54251 0.43991-0.98226 0.98242-0.98242zm14.412 0c0.54251 1.6e-4 0.98226 0.43991 0.98242 0.98242 9.23e-4 0.54328-0.43914 0.98422-0.98242 0.98438-0.54404 9.25e-4 -0.9853-0.44034-0.98438-0.98438 1.6e-4 -0.54328 0.4411-0.98334 0.98438-0.98242zm3.0703 0c0.54251 1.6e-4 0.98226 0.43991 0.98242 0.98242 9.23e-4 0.54328-0.43914 0.98422-0.98242 0.98438-0.54328-1.6e-4 -0.98334-0.4411-0.98242-0.98438 1.6e-4 -0.54251 0.43991-0.98226 0.98242-0.98242zm-41.488 36.68c-0.95378 0-1.7227 0.76693-1.7227 1.7207v0.32617c0 0.95378 0.76888 1.7207 1.7227 1.7207h45.018c0.95378 0 1.7207-0.76692 1.7207-1.7207v-0.32617c0-0.95378-0.76692-1.7207-1.7207-1.7207h-45.018z" fill="primary"/></svg>
