<svg width="64" height="64" version="1.1" viewBox="0 0 64 64" xml:space="preserve" xmlns="http://www.w3.org/2000/svg"><path d="m4.9922 23.203 1.9375 24.865c0.21525 2.7616 2.23 5 5 5h40c2.77 0 5-2.23 5-5l2.0801-24.865h-54.018zm27.008 5.7656a0.83342 0.83342 0 0 1 0.51172 0.17578l7.5 5.832a0.83342 0.83342 0 0 1 0.32226 0.6582v9.166c0 1.3708-1.1292 2.5-2.5 2.5h-3.3008-0.066406-4.9336-0.066406-3.3008c-1.3708 0-2.5-1.1292-2.5-2.5v-9.166a0.83342 0.83342 0 0 1 0.32226-0.6582l7.5-5.832a0.83342 0.83342 0 0 1 0.51172-0.17578zm0 1.8887-6.666 5.1855v8.7578c1e-6 0.47011 0.36192 0.83398 0.83203 0.83398h2.5v-7.5a0.83342 0.83342 0 0 1 0.83398-0.83398h5a0.83342 0.83342 0 0 1 0.83398 0.83398v7.5h2.5c0.47011 0 0.83203-0.36388 0.83203-0.83398v-8.7578l-6.666-5.1855zm-1.666 8.1113v6.666h3.332v-6.666h-3.332z" fill="primary"/><path d="m26.395 10.932c1.662 0 3 1.338 3 3v2.7501h20.605c2.77 0 5 2.23 5 5v0.5918h-46v-8.3419c0-1.662 1.338-3 3-3z" fill="secondary"/></svg>
