<svg width="64" height="64" version="1.1" viewBox="0 0 64 64" xml:space="preserve" xmlns="http://www.w3.org/2000/svg"><path d="m7 24.016v24.865c0 2.77 2.23 5 5 5h40c2.77 0 5-2.23 5-5v-24.865h-50zm25 5.7656a0.83342 0.83342 0 0 1 0.51172 0.17578l7.5 5.832a0.83342 0.83342 0 0 1 0.32226 0.6582v9.168c0 1.3708-1.1292 2.5-2.5 2.5h-3.3008-0.066406-4.9336-0.066406-3.3008c-1.3708 2e-6 -2.5-1.1292-2.5-2.5v-9.168a0.83342 0.83342 0 0 1 0.32226-0.6582l7.5-5.832a0.83342 0.83342 0 0 1 0.51172-0.17578zm0 1.8887-6.666 5.1855v8.7598c0 0.47011 0.36192 0.83203 0.83203 0.83203h2.5v-7.5a0.83342 0.83342 0 0 1 0.83398-0.83203h5a0.83342 0.83342 0 0 1 0.83398 0.83203v7.5h2.5c0.47011 1e-6 0.83203-0.36192 0.83203-0.83203v-8.7598l-6.666-5.1855zm-1.666 8.1113v6.666h3.332v-6.666h-3.332z" fill="primary"/><path d="m26.395 11.746c1.662 0 3 1.338 3 3v2.7501h20.605c2.77 0 5 2.23 5 5v0.5918h-46v-8.3419c0-1.662 1.338-3 3-3z" fill="secondary"/></svg>
