<svg width="64" height="64" version="1.1" viewBox="0 0 64 64" xml:space="preserve" xmlns="http://www.w3.org/2000/svg"><path d="m7 24.016v24.865c0 2.77 2.23 5 5 5h40c2.77 0 5-2.23 5-5v-24.865h-50zm18.334 6.5996h13.332c1.3706 0 2.5 1.1294 2.5 2.5v8.332c0 1.3706-1.1294 2.5-2.5 2.5h-5.832v1.668h2.5a0.83333 0.83333 0 0 1 0.83203 0.83203 0.83333 0.83333 0 0 1-0.83203 0.83398h-3.332-0.001953-3.334a0.83333 0.83333 0 0 1-0.83203-0.83398 0.83333 0.83333 0 0 1 0.83203-0.83203h2.5v-1.668h-5.832c-1.3706 0-2.5-1.1294-2.5-2.5v-8.332c0-1.3706 1.1294-2.5 2.5-2.5zm0 1.666c-0.47608 0-0.83398 0.3579-0.83398 0.83398v8.332c0 0.47608 0.3579 0.83398 0.83398 0.83398h6.6641 0.003906 6.6641c0.47608 0 0.83398-0.3579 0.83398-0.83398v-8.332c0-0.47608-0.3579-0.83398-0.83398-0.83398h-13.332z" fill="primary"/><path d="m26.395 11.746c1.662 0 3 1.338 3 3v2.7501h20.605c2.77 0 5 2.23 5 5v0.5918h-46v-8.3419c0-1.662 1.338-3 3-3z" fill="secondary"/></svg>
