<svg class="feather feather-file-text" width="20" height="20" fill="none" stroke="currentColor" stroke-linecap="round" stroke-linejoin="round" stroke-width="2" version="1.1" viewBox="0 0 24 24" xml:space="preserve" xmlns="http://www.w3.org/2000/svg"><path d="m7.0008 1.9992c-1.645 0-3 1.355-3 3v16.001c-0.00185 0.81485 0.91933 1.2898 1.582 0.81562l6.4172-4.5867 6.4172 4.5867c0.6627 0.47414 1.5839-7.77e-4 1.582-0.81562v-16.001c0-1.645-1.355-3-3-3zm0 2.0016h9.9984c0.56413 0 1.0008 0.43431 1.0008 0.99844v14.055l-5.4188-3.8695c-0.34771-0.24834-0.81479-0.24834-1.1625 0l-5.4188 3.8695v-14.055c0-0.56413 0.43665-0.99844 1.0008-0.99844z" fill="#000" stroke="none"/></svg>
