<svg class="feather feather-file-text" width="20" height="20" fill="none" stroke="currentColor" stroke-linecap="round" stroke-linejoin="round" stroke-width="2" version="1.1" viewBox="0 0 24 24" xml:space="preserve" xmlns="http://www.w3.org/2000/svg"><path d="m7.0008 1.9992c-1.645 0-3 1.355-3 3v16.001a1.0001 1.0001 0 0 0 1.582 0.81562l6.4172-4.5867 6.4172 4.5867a1.0001 1.0001 0 0 0 1.582-0.81562v-16.001c0-1.645-1.355-3-3-3h-9.9984zm0 2.0016h9.9984c0.56413 0 1.0008 0.43431 1.0008 0.99844v14.055l-5.4188-3.8695a1.0001 1.0001 0 0 0-1.1625 0l-5.4188 3.8695v-14.055c0-0.56413 0.43665-0.99844 1.0008-0.99844zm5.0016 1.0008a1 1 0 0 0-1.0031 0.99844v2.0016h-1.9969a1 1 0 0 0-1.0031 0.99844 1 1 0 0 0 1.0031 1.0008h1.9969v1.9992a1 1 0 0 0 1.0031 1.0008 1 1 0 0 0 0.99609-1.0008v-1.9992h2.0039a1 1 0 0 0 0.99609-1.0008 1 1 0 0 0-0.99609-0.99844h-2.0039v-2.0016a1 1 0 0 0-0.99609-0.99844z" fill="#000" stroke="none"/></svg>
