<svg class="feather feather-search" width="16" height="16" fill="none" stroke="currentColor" stroke-linecap="round" stroke-linejoin="round" stroke-width="2" version="1.1" viewBox="0 0 24 24" xmlns="http://www.w3.org/2000/svg">
 <path d="m11.001 2.001c-4.9587 0-9 4.0413-9 9 0 4.9587 4.0413 9 9 9 2.1203 0 4.0727-0.74105 5.6133-1.9746l3.6797 3.6797a1 1 0 0 0 1.4121 0 1 1 0 0 0 0-1.4121l-3.6797-3.6797c1.2336-1.5406 1.9746-3.493 1.9746-5.6133 0-4.9587-4.0413-9-9-9zm0 1.998c3.8778 0 6.999 3.1241 6.999 7.002 0 1.88-0.73269 3.5818-1.9307 4.8369a1 1 0 0 0-0.12598 0.10547 1 1 0 0 0-0.10547 0.12598c-1.2551 1.198-2.9569 1.9307-4.8369 1.9307-3.8778 0-7.002-3.1212-7.002-6.999 0-3.8778 3.1241-7.002 7.002-7.002z" fill="#000" stroke="none"/>
</svg>
