<svg class="feather feather-more-horizontal" width="20" height="20" fill="none" stroke="currentColor" stroke-linecap="round" stroke-linejoin="round" stroke-width="2" version="1.1" viewBox="0 0 24 24" xmlns="http://www.w3.org/2000/svg">
 <path d="m4.9992 10.001c-1.0927 0-1.9992 0.90649-1.9992 1.9992s0.90649 1.9992 1.9992 1.9992c1.0927 0 2.0016-0.90649 2.0016-1.9992s-0.90884-1.9992-2.0016-1.9992zm7.0008 0c-1.0927 0-1.9992 0.90649-1.9992 1.9992s0.90649 1.9992 1.9992 1.9992 1.9992-0.90649 1.9992-1.9992-0.90649-1.9992-1.9992-1.9992zm7.0008 0c-1.0927 0-2.0016 0.90649-2.0016 1.9992s0.90884 1.9992 2.0016 1.9992 1.9992-0.90649 1.9992-1.9992-0.90649-1.9992-1.9992-1.9992z" fill="#000" stroke="none"/>
</svg>
