<svg class="feather feather-search" width="16" height="16" fill="none" stroke="currentColor" stroke-linecap="round" stroke-linejoin="round" stroke-width="2" version="1.1" viewBox="0 0 24 24" xml:space="preserve" xmlns="http://www.w3.org/2000/svg"><path d="m3 5.001a1 1 0 0 0-0.99902 0.99902 1 1 0 0 0 0.99902 0.99902h0.0087891a1 1 0 0 0 1.002-0.99902 1 1 0 0 0-1.002-0.99902h-0.0087891zm5.001 0a1 1 0 0 0-1.002 0.99902 1 1 0 0 0 1.002 0.99902h12.999a1 1 0 0 0 0.99902-0.99902 1 1 0 0 0-0.99902-0.99902h-12.999zm-5.001 6a1 1 0 0 0-0.99902 0.99902 1 1 0 0 0 0.99902 0.99902h0.0087891a1 1 0 0 0 1.002-0.99902 1 1 0 0 0-1.002-0.99902h-0.0087891zm5.001 0a1 1 0 0 0-1.002 0.99902 1 1 0 0 0 1.002 0.99902h12.999a1 1 0 0 0 0.99902-0.99902 1 1 0 0 0-0.99902-0.99902h-12.999zm-5.001 6a1 1 0 0 0-0.99902 0.99902 1 1 0 0 0 0.99902 0.99902h0.0087891a1 1 0 0 0 1.002-0.99902 1 1 0 0 0-1.002-0.99902h-0.0087891zm5.001 0a1 1 0 0 0-1.002 0.99902 1 1 0 0 0 1.002 0.99902h12.999a1 1 0 0 0 0.99902-0.99902 1 1 0 0 0-0.99902-0.99902h-12.999z" fill="#000" stroke="none"/></svg>
