<svg class="feather feather-file-text" width="20" height="20" fill="none" stroke="currentColor" stroke-linecap="round" stroke-linejoin="round" stroke-width="2" version="1.1" viewBox="0 0 24 24" xml:space="preserve" xmlns="http://www.w3.org/2000/svg"><path d="m18 1.0008c-2.1973 0-4.0008 1.8011-4.0008 3.9984 0 0.37625 0.0537 0.74146 0.15234 1.0875l-5.3156 3.1031c-0.72634-0.73282-1.7309-1.1906-2.8359-1.1906-2.1973 0-4.0008 1.8035-4.0008 4.0008 0 2.1973 1.8035 4.0008 4.0008 4.0008 1.1053 0 2.1096-0.45757 2.8359-1.1906l5.318 3.1008c-0.099039 0.34668-0.15469 0.71281-0.15469 1.0898 0 2.1973 1.8035 3.9984 4.0008 3.9984s4.0008-1.8011 4.0008-3.9984-1.8035-4.0008-4.0008-4.0008c-1.1035 0-2.1075 0.455-2.8336 1.1859l-5.318-3.0984c0.098545-0.34588 0.15234-0.71145 0.15234-1.0875 0-0.37625-0.0537-0.74146-0.15234-1.0875l5.3156-3.1008c0.72634 0.73282 1.7309 1.1883 2.8359 1.1883 2.1973 0 4.0008-1.8035 4.0008-4.0008s-1.8035-3.9984-4.0008-3.9984zm0 1.9992c1.1164 0 1.9992 0.8828 1.9992 1.9992s-0.8828 2.0016-1.9992 2.0016c-0.71039 0-1.3263-0.35918-1.6805-0.90703a1 1 0 0 0-0.046875-0.086719 1 1 0 0 0-0.049219-0.079688c-0.14253-0.27623-0.22266-0.59187-0.22266-0.92812 0-1.1164 0.8828-1.9992 1.9992-1.9992zm-12 7.0008c0.71039 0 1.3263 0.35683 1.6805 0.90469a1 1 0 0 0 0.046875 0.089062 1 1 0 0 0 0.049219 0.077344c0.14253 0.27623 0.22266 0.59187 0.22266 0.92812s-0.080129 0.6519-0.22266 0.92812a1 1 0 0 0-0.049219 0.077344 1 1 0 0 0-0.046875 0.089062c-0.35419 0.54785-0.97008 0.90469-1.6805 0.90469-1.1164 0-1.9992-0.8828-1.9992-1.9992s0.8828-1.9992 1.9992-1.9992zm12 6.9984c1.1164 0 1.9992 0.88515 1.9992 2.0016s-0.8828 1.9992-1.9992 1.9992-1.9992-0.8828-1.9992-1.9992c0-0.32064 0.07121-0.62381 0.20156-0.89062a1 1 0 0 0 0.079687-0.11484 1 1 0 0 0 0.065625-0.13125c0.35807-0.52433 0.96007-0.86484 1.6523-0.86484z" fill="#000" stroke="none"/></svg>
