<svg class="feather feather-file-text" width="20" height="20" fill="none" stroke="currentColor" stroke-linecap="round" stroke-linejoin="round" stroke-width="2" version="1.1" viewBox="0 0 24 24" xmlns="http://www.w3.org/2000/svg">
 <path d="m6 1.0008c-1.645 0-3 1.355-3 3v15.998c0 1.645 1.355 3 3 3h12c1.645 0 3-1.355 3-3v-12a1 1 0 0 0-0.009375-0.12891 1.0001 1.0001 0 0 0 0-0.0023438 1 1 0 0 0-0.025781-0.12656 1 1 0 0 0-0.042188-0.12422 1.0001 1.0001 0 0 0-0.002344-0.0070313 1 1 0 0 0-0.053906-0.11016 1.0001 1.0001 0 0 0-0.004687-0.009375 1 1 0 0 0-0.067969-0.098438 1 1 0 0 0-0.086719-0.098438l-0.009375-0.011719a1 1 0 0 0-0.014062-0.011719l-5.9672-5.9672a1 1 0 0 0-0.046875-0.042188 1.0001 1.0001 0 0 0-0.051562-0.046875 1 1 0 0 0-0.10312-0.070312 1.0001 1.0001 0 0 0-0.007032-0.0046875 1 1 0 0 0-0.34219-0.12422 1.0001 1.0001 0 0 0-0.032813-0.0070312 1 1 0 0 0-0.002343 0 1.0001 1.0001 0 0 0-0.13125-0.0070313h-7.9992zm0 1.9992h7.0008v4.9992a1.0001 1.0001 0 0 0 0.99844 1.0008h5.0016v10.999c0 0.56413-0.43665 1.0008-1.0008 1.0008h-12c-0.56413 0-1.0008-0.43665-1.0008-1.0008v-15.998c0-0.56413 0.43665-1.0008 1.0008-1.0008zm9 1.4133 2.5875 2.5875h-2.5875v-2.5875zm-7.0008 3.5859a1 1 0 0 0-0.99844 1.0008 1 1 0 0 0 0.99844 1.0008h1.0008 1.0008a1 1 0 0 0 0.99844-1.0008 1 1 0 0 0-0.99844-1.0008h-1.0008-1.0008zm0 4.0008a1 1 0 0 0-0.99844 1.0008 1 1 0 0 0 0.99844 0.99844h8.0016a1 1 0 0 0 0.99844-0.99844 1 1 0 0 0-0.99844-1.0008h-8.0016zm0 4.0008a1 1 0 0 0-0.99844 0.99844 1 1 0 0 0 0.99844 1.0008h8.0016a1 1 0 0 0 0.99844-1.0008 1 1 0 0 0-0.99844-0.99844h-8.0016z" fill="#000" stroke="none"/>
</svg>
