<svg class="feather feather-file-text" width="20" height="20" fill="none" stroke="currentColor" stroke-linecap="round" stroke-linejoin="round" stroke-width="2" version="1.1" viewBox="0 0 24 24" xml:space="preserve" xmlns="http://www.w3.org/2000/svg"><path d="m4.9992 1.9992c-1.6447 0-3 1.3553-3 3v14.002c0 1.6447 1.3553 3 3 3h14.002c1.6447 0 3-1.3553 3-3v-4.0008-10.001c0-1.6447-1.3553-3-3-3h-14.002zm0 2.0016h14.002c0.5713 0 0.99844 0.42714 0.99844 0.99844v7.5844l-3.293-3.2906a1.0001 1.0001 0 0 0-1.4133 0l-10.648 10.648c-0.38524-0.13664-0.64453-0.49468-0.64453-0.93984v-14.002c0-0.5713 0.42714-0.99844 0.99844-0.99844zm3.5016 1.9992c-1.3689 0-2.5008 1.1319-2.5008 2.5008s1.1319 2.4984 2.5008 2.4984 2.4984-1.1296 2.4984-2.4984c0-1.3689-1.1296-2.5008-2.4984-2.5008zm0 1.9992c0.28799 0 0.49922 0.21358 0.49922 0.50156s-0.21123 0.49922-0.49922 0.49922c-0.28799 0-0.50156-0.21123-0.50156-0.49922 0-0.28799 0.21358-0.50156 0.50156-0.50156zm7.5 3.4148 3.9984 4.0008v3.5859c0 0.5713-0.42714 0.99844-0.99844 0.99844h-11.585l8.5852-8.5852z" fill="#000" stroke="none"/></svg>
