<svg class="feather feather-file-text" width="20" height="20" fill="none" stroke="currentColor" stroke-linecap="round" stroke-linejoin="round" stroke-width="2" version="1.1" viewBox="0 0 24 24" xml:space="preserve" xmlns="http://www.w3.org/2000/svg"><path d="m20.97 2.0016a1.0001 1.0001 0 0 0-0.13359 0.011719l-12 2.0016a1.0001 1.0001 0 0 0-0.83672 0.98438v9.5414c-0.58951-0.34353-1.2724-0.54141-1.9992-0.54141-2.1973 0-4.0008 1.8035-4.0008 4.0008 0 2.1973 1.8035 4.0008 4.0008 4.0008s4.0008-1.8035 4.0008-4.0008v-12.152l9.9984-1.6688v8.3625c-0.58952-0.34353-1.2724-0.54141-1.9992-0.54141-2.1973 0-4.0008 1.8035-4.0008 4.0008s1.8035 3.9984 4.0008 3.9984 4.0008-1.8011 4.0008-3.9984v-13.001a1.0001 1.0001 0 0 0-1.0312-0.99844zm-2.9695 11.998c1.1164 0 1.9992 0.88515 1.9992 2.0016s-0.8828 1.9992-1.9992 1.9992-1.9992-0.8828-1.9992-1.9992 0.8828-2.0016 1.9992-2.0016zm-12 2.0016c1.1164 0 1.9992 0.8828 1.9992 1.9992s-0.8828 1.9992-1.9992 1.9992-1.9992-0.8828-1.9992-1.9992 0.8828-1.9992 1.9992-1.9992z" fill="#000" stroke="none"/></svg>
