<svg class="feather feather-download" width="20" height="20" fill="none" stroke="currentColor" stroke-linecap="round" stroke-linejoin="round" stroke-width="2" version="1.1" viewBox="0 0 24 24" xmlns="http://www.w3.org/2000/svg">
 <path d="m12 1.9992a1 1 0 0 0-1.0008 1.0008v9.5859l-3.293-3.293a1 1 0 0 0-0.70547-0.29297 1 1 0 0 0-0.70781 0.29297 1 1 0 0 0 0 1.4133l4.9992 5.0016a1.0001 1.0001 0 0 0 0.067969 0.058594 1 1 0 0 0 0.025781 0.023438 1.0001 1.0001 0 0 0 0.035157 0.023437 1 1 0 0 0 0.070312 0.046875 1.0001 1.0001 0 0 0 0.009375 0.004688 1 1 0 0 0 0.11016 0.05625 1.0001 1.0001 0 0 0 0.007032 0.002343 1 1 0 0 0 0.24844 0.067969 1.0001 1.0001 0 0 0 0.002344 0 1 1 0 0 0 0.13125 0.009375 1 1 0 0 0 0.13125-0.009375 1.0001 1.0001 0 0 0 0.002344 0 1.0001 1.0001 0 0 0 0.12422-0.025781 1 1 0 0 0 0.12422-0.042188 1.0001 1.0001 0 0 0 0.19688-0.11016 1 1 0 0 0 0.035156-0.023437 1.0001 1.0001 0 0 0 0.09375-0.082032l4.9992-5.0016a1 1 0 0 0 0-1.4133 1 1 0 0 0-1.4133 0l-3.293 3.293v-9.5859a1 1 0 0 0-1.0008-1.0008zm-9 12a1 1 0 0 0-1.0008 1.0008v4.0008c0 1.645 1.355 3 3 3h14.002c1.645 0 3-1.355 3-3v-4.0008a1 1 0 0 0-1.0008-1.0008 1 1 0 0 0-1.0008 1.0008v4.0008c0 0.56413-0.43431 0.99844-0.99844 0.99844h-14.002c-0.56413 0-0.99844-0.43431-0.99844-0.99844v-4.0008a1 1 0 0 0-1.0008-1.0008z" fill="#000" stroke="none"/>
</svg>
