<svg class="feather feather-file-text" width="20" height="20" fill="none" stroke="currentColor" stroke-linecap="round" stroke-linejoin="round" stroke-width="2" version="1.1" viewBox="0 0 24 24" xml:space="preserve" xmlns="http://www.w3.org/2000/svg"><path d="m11.995 7.0008c-2.4092 0-4.4361 1.7258-4.9008 4.0031a1 1 0 0 0-0.10078-0.004687h-5.9484a1 1 0 0 0-1.0008 1.0008 1 1 0 0 0 1.0008 1.0008h5.9484a1 1 0 0 0 0.10078-0.004687c0.46472 2.2773 2.4916 4.0031 4.9008 4.0031 2.4096 0 4.4342-1.7275 4.8984-4.0055a1 1 0 0 0 0.1125 0.007031h5.9484a1 1 0 0 0 1.0008-1.0008 1 1 0 0 0-1.0008-1.0008h-5.9484a1 1 0 0 0-0.1125 0.007031c-0.46425-2.278-2.4888-4.0055-4.8984-4.0055zm0 1.9992c1.6687 0 3 1.3313 3 3s-1.3313 3-3 3-3.0023-1.3313-3.0023-3 1.3336-3 3.0023-3z" fill="#000" stroke="none"/></svg>
