<svg class="feather feather-home" width="16" height="16" fill="none" stroke="currentColor" stroke-linecap="round" stroke-linejoin="round" stroke-width="2" version="1.1" viewBox="0 0 24 24" xml:space="preserve" xmlns="http://www.w3.org/2000/svg"><path d="m12 0.99902c-6.0633 0-11.001 4.9377-11.001 11.001 0 6.0633 4.9377 11.001 11.001 11.001 6.0633 0 11.001-4.9377 11.001-11.001 0-6.0633-4.9377-11.001-11.001-11.001zm0 2.001c4.9824 0 9 4.0176 9 9 0 4.9824-4.0176 9-9 9-4.9824 0-9-4.0176-9-9 0-4.9824 4.0176-9 9-9zm0 2.001a1 1 0 0 0-0.99902 0.99902v6a1.0001 1.0001 0 0 0 0.55078 0.89356l4.002 2.001a1 1 0 0 0 1.3418-0.44824 1 1 0 0 0-0.44824-1.3418l-3.4482-1.7227v-5.3818a1 1 0 0 0-0.99902-0.99902z" fill="#000" stroke="none"/></svg>
