<svg class="feather feather-file-text" width="20" height="20" fill="none" stroke="currentColor" stroke-linecap="round" stroke-linejoin="round" stroke-width="2" version="1.1" viewBox="0 0 24 24" xml:space="preserve" xmlns="http://www.w3.org/2000/svg"><path d="m10.999 1.9992c-4.9587 0-9 4.0413-9 9 0 4.9587 4.0413 9 9 9 2.1203 0 4.0727-0.73754 5.6133-1.9711l3.6797 3.6797a1 1 0 0 0 1.4156 0 1 1 0 0 0 0-1.4156l-3.6797-3.6797c1.2336-1.5406 1.9711-3.493 1.9711-5.6133 0-4.9587-4.0413-9-9-9zm0 2.0016c3.8778 0 7.0008 3.1206 7.0008 6.9984 0 1.88-0.73327 3.5824-1.9312 4.8375a1 1 0 0 0-0.12656 0.10547 1 1 0 0 0-0.10547 0.12656c-1.2551 1.198-2.9575 1.9312-4.8375 1.9312-3.8778 0-6.9984-3.1229-6.9984-7.0008 0-3.8778 3.1206-6.9984 6.9984-6.9984z" fill="#000" stroke="none"/></svg>
