<svg class="feather feather-file-text" width="20" height="20" fill="none" stroke="currentColor" stroke-linecap="round" stroke-linejoin="round" stroke-width="2" version="1.1" viewBox="0 0 24 24" xml:space="preserve" xmlns="http://www.w3.org/2000/svg"><g transform="translate(.052251 -.065307)" fill="#000" stroke="none"><path d="m6.748 1.9102c-1.6531 0.097432-3.1653 0.86453-4.2949 1.9941-1.1296 1.1296-1.8969 2.642-1.9941 4.2949-0.097245 1.653 0.52065 3.4253 1.9941 4.8984l1.0605 1.0586 7.7793 7.7812a1.0001 1.0001 0 0 0 1.4141 0l7.7793-7.7812 1.0605-1.0586c2.5315-2.5303 2.5315-6.665 0-9.1953-2.5303-2.5315-6.6631-2.5315-9.1934 0l-0.35352 0.35352-0.35352-0.35352c-1.4735-1.4731-3.2454-2.0896-4.8984-1.9922zm0.11719 1.9961c1.1024-0.064974 2.2473 0.29059 3.3672 1.4102l1.0605 1.0605a1.0001 1.0001 0 0 0 1.4141 0l1.0605-1.0605c1.7659-1.7667 4.5993-1.7667 6.3652 0 1.7667 1.7659 1.7667 4.6013 0 6.3672l-1.0605 1.0586-7.0723 7.0742-7.0723-7.0742-1.0605-1.0586c-1.1198-1.1196-1.475-2.2651-1.4102-3.3672 0.064839-1.1021 0.59477-2.1827 1.4102-2.998 0.81538-0.81538 1.8957-1.3471 2.998-1.4121z" fill="#000" stop-color="#000000"/></g></svg>
