<svg class="feather feather-folder" width="16" height="16" fill="none" stroke="currentColor" stroke-linecap="round" stroke-linejoin="round" stroke-width="2" version="1.1" viewBox="0 0 24 24" xmlns="http://www.w3.org/2000/svg">
 <path d="m4 2c-1.645 0-3 1.355-3 3v14c0 1.645 1.355 3 3 3h16c1.645 0 3-1.355 3-3v-11c0-1.645-1.355-3-3-3h-8.4648l-1.7031-2.5547a1.0001 1.0001 0 0 0-0.83203-0.44531zm0 2h4.4648l1.7031 2.5547a1.0001 1.0001 0 0 0 0.83203 0.44531h9c0.56413 0 1 0.43587 1 1v11c0 0.56413-0.43587 1-1 1h-16c-0.56413 0-1-0.43587-1-1v-14c0-0.56413 0.43587-1 1-1z" fill="#000" stroke="none"/>
</svg>
