<svg class="feather feather-file-text" width="20" height="20" fill="none" stroke="currentColor" stroke-linecap="round" stroke-linejoin="round" stroke-width="2" version="1.1" viewBox="0 0 24 24" xml:space="preserve" xmlns="http://www.w3.org/2000/svg"><path d="m3 3.9996c-1.6447 0-3 1.3553-3 3v10.001c0 1.6447 1.3553 3 3 3h11.002c1.6447 0 3-1.3553 3-3v-3.0516l5.4164 3.8672a1.0001 1.0001 0 0 0 1.582-0.81562v-9.9984a1.0001 1.0001 0 0 0-0.54375-0.89062 1.0001 1.0001 0 0 0-1.0383 0.075l-5.4164 3.8695v-3.0562c0-1.6447-1.3553-3-3-3zm0 2.0016h11.002c0.5713 0 0.99844 0.42714 0.99844 0.99844v4.9359a1.0001 1.0001 0 0 0 0 0.13125v4.9336c0 0.5713-0.42714 1.0008-0.99844 1.0008h-11.002c-0.5713 0-1.0008-0.42948-1.0008-1.0008v-10.001c0-0.5713 0.42948-0.99844 1.0008-0.99844zm19.001 2.9461v6.1078l-4.2773-3.0539z" fill="#000" stroke="none"/></svg>
