<svg class="feather feather-file-text" width="20" height="20" fill="none" stroke="currentColor" stroke-linecap="round" stroke-linejoin="round" stroke-width="2" version="1.1" viewBox="0 0 24 24" xml:space="preserve" xmlns="http://www.w3.org/2000/svg"><path d="m6 1.0008c-1.645 0-3 1.355-3 3v15.998c0 1.645 1.355 3 3 3h12c1.645 0 3-1.355 3-3v-10.999a1 1 0 0 0-0.009375-0.13125 1.0001 1.0001 0 0 0 0-0.0023438 1 1 0 0 0-0.025781-0.12422 1 1 0 0 0-0.042188-0.12422 1.0001 1.0001 0 0 0-0.002344-0.0070312 1 1 0 0 0-0.053906-0.11016 1.0001 1.0001 0 0 0-0.004687-0.009375 1 1 0 0 0-0.067969-0.10078 1.0001 1.0001 0 0 0-0.007031-0.009375 1 1 0 0 0-0.079688-0.089062l-0.009375-0.009375-6.968-6.9656-0.011718-0.014062a1 1 0 0 0-0.011719-0.009375 1 1 0 0 0-0.098438-0.086719 1.0001 1.0001 0 0 0-0.098437-0.067969 1 1 0 0 0-0.009375-0.0046875 1.0001 1.0001 0 0 0-0.11016-0.05625 1 1 0 0 0-0.225-0.063281 1.0001 1.0001 0 0 0-0.032813-0.0070312 1 1 0 0 0-0.002344 0 1.0001 1.0001 0 0 0-0.12891-0.0070313h-7.0008zm0 1.9992h6v6a1.0001 1.0001 0 0 0 1.0008 1.0008h6v9.9984c0 0.56413-0.43665 1.0008-1.0008 1.0008h-12c-0.56413 0-1.0008-0.43665-1.0008-1.0008v-15.998c0-0.56413 0.43665-1.0008 1.0008-1.0008zm7.9992 1.4133 3.5859 3.5859h-3.5859v-3.5859z" fill="#000" stroke="none"/></svg>
