<svg class="feather feather-file-text" width="20" height="20" fill="none" stroke="currentColor" stroke-linecap="round" stroke-linejoin="round" stroke-width="2" version="1.1" viewBox="0 0 24 24" xml:space="preserve" xmlns="http://www.w3.org/2000/svg"><path d="m4.9289 3.9305a1 1 0 0 0-0.70547 0.29297c-4.2858 4.2871-4.2858 11.266 0 15.553a1 1 0 0 0 1.4133 0 1 1 0 0 0 0-1.4133c-3.5218-3.5229-3.5218-9.2037 0-12.727a1 1 0 0 0 0-1.4133 1 1 0 0 0-0.70781-0.29297zm14.142 0a1 1 0 0 0-0.70781 0.29297 1 1 0 0 0 0 1.4133c3.5218 3.5229 3.5218 9.2037 0 12.727a1 1 0 0 0 0 1.4133 1 1 0 0 0 1.4133 0c4.2858-4.2871 4.2858-11.266 0-15.553a1 1 0 0 0-0.70547-0.29297zm-11.311 2.8195a1 1 0 0 0-0.70781 0.29297c-2.7289 2.7259-2.7289 7.1788 0 9.9047a1 1 0 0 0 1.4156 0 1 1 0 0 0 0-1.4156c-1.9637-1.9615-1.9637-5.1143 0-7.0758a1 1 0 0 0 0-1.4133 1 1 0 0 0-0.70781-0.29297zm8.4797 0.009375a1 1 0 0 0-0.70781 0.29297 1 1 0 0 0 0 1.4156c1.9637 1.9615 1.9637 5.1143 0 7.0758a1 1 0 0 0 0 1.4133 1 1 0 0 0 1.4156 0c2.7289-2.7259 2.7289-7.1788 0-9.9047a1 1 0 0 0-0.70781-0.29297zm-4.2398 2.2406c-1.645 0-3 1.355-3 3s1.355 3 3 3 3-1.355 3-3-1.355-3-3-3zm0 1.9992c0.56413 0 1.0008 0.43665 1.0008 1.0008s-0.43665 1.0008-1.0008 1.0008-1.0008-0.43665-1.0008-1.0008 0.43665-1.0008 1.0008-1.0008z" fill="#000" stroke="none"/></svg>
