<svg class="feather feather-home" width="16" height="16" fill="none" stroke="currentColor" stroke-linecap="round" stroke-linejoin="round" stroke-width="2" version="1.1" viewBox="0 0 24 24" xml:space="preserve" xmlns="http://www.w3.org/2000/svg"><g transform="translate(0 .48998)"><path d="m12 0.50904c-6.0633 0-11.001 4.9377-11.001 11.001 0 6.0633 4.9377 11.001 11.001 11.001 6.0633 0 11.001-4.9377 11.001-11.001 0-6.0633-4.9377-11.001-11.001-11.001zm-2.2734 2.2881c-1.5278 2.2951-2.4535 4.9496-2.6777 7.7139h-3.9932c0.41141-3.7466 3.1064-6.7916 6.6709-7.7139zm4.5469 0c3.5645 0.92229 6.2595 3.9673 6.6709 7.7139h-3.9932c-0.22425-2.7642-1.1499-5.4188-2.6777-7.7139zm-2.2734 0.56543c1.5754 2.1078 2.6614 4.5397 2.9326 7.1484h-5.8652c0.27119-2.6087 1.3573-5.0406 2.9326-7.1484zm-8.9443 9.1465h3.9932c0.22425 2.7642 1.1499 5.4188 2.6777 7.7139-3.5645-0.92229-6.2595-3.9673-6.6709-7.7139zm6.0117 0h5.8652c-0.27119 2.6087-1.3572 5.0406-2.9326 7.1484-1.5754-2.1078-2.6614-4.5397-2.9326-7.1484zm7.8838 0h3.9932c-0.41141 3.7466-3.1064 6.7916-6.6709 7.7139 1.5278-2.2951 2.4535-4.9496 2.6777-7.7139z" fill="#000" stroke="none"/></g></svg>
