<svg class="feather feather-home" width="16" height="16" fill="none" stroke="currentColor" stroke-linecap="round" stroke-linejoin="round" stroke-width="2" version="1.1" viewBox="0 0 24 24" xml:space="preserve" xmlns="http://www.w3.org/2000/svg"><g transform="translate(0 .48998)"><path d="m12 1a1.0001 1.0001 0 0 0-0.89648 0.55664l-2.8574 5.7891-6.3906 0.93555a1.0001 1.0001 0 0 0-0.55273 1.7051l4.623 4.5039-1.0918 6.3613a1.0001 1.0001 0 0 0 1.4512 1.0527l5.7148-3.0039 5.7148 3.0039a1.0001 1.0001 0 0 0 1.4512-1.0527l-1.0918-6.3613 4.623-4.5039a1.0001 1.0001 0 0 0-0.55274-1.7051l-6.3906-0.93555-2.8574-5.7891a1.0001 1.0001 0 0 0-0.89648-0.55664zm0 3.2598 2.1934 4.4434a1.0001 1.0001 0 0 0 0.75195 0.54688l4.9062 0.7168-3.5488 3.457a1.0001 1.0001 0 0 0-0.28906 0.88477l0.83789 4.8828-4.3867-2.3066a1.0001 1.0001 0 0 0-0.92969 0l-4.3867 2.3066 0.83789-4.8828a1.0001 1.0001 0 0 0-0.28906-0.88477l-3.5488-3.457 4.9062-0.7168a1.0001 1.0001 0 0 0 0.75195-0.54688z" fill="#000" stroke="none"/></g></svg>
