<svg class="feather feather-home" width="16" height="16" fill="none" stroke="currentColor" stroke-linecap="round" stroke-linejoin="round" stroke-width="2" version="1.1" viewBox="0 0 24 24" xml:space="preserve" xmlns="http://www.w3.org/2000/svg"><g transform="translate(0 .48998)"><path transform="translate(0 -.48998)" d="m9.999 0.99902c-1.645 0-3 1.355-3 3v1.002h-1.9775-0.020508-0.023438-1.9775a1 1 0 0 0-0.99902 0.99902 1 1 0 0 0 0.99902 0.99902h0.99902v13.002c0 1.645 1.355 3 3 3h10.002c1.645 0 3-1.355 3-3v-13.002h0.99902a1 1 0 0 0 0.99902-0.99902 1 1 0 0 0-0.99902-0.99902h-1.9775-0.043945-1.9775v-1.002c0-1.645-1.355-3-3-3h-4.002zm0 2.001h4.002c0.56413 0 0.99902 0.43489 0.99902 0.99902v1.002h-6v-1.002c0-0.56413 0.43489-0.99902 0.99902-0.99902zm-3.999 3.999h2.001 7.998 2.001v13.002c0 0.56413-0.43489 0.99902-0.99902 0.99902h-10.002c-0.56413 0-0.99902-0.43489-0.99902-0.99902v-13.002z" fill="#000" stroke="none"/></g></svg>
