<svg class="feather feather-file-text" width="20" height="20" fill="none" stroke="currentColor" stroke-linecap="round" stroke-linejoin="round" stroke-width="2" version="1.1" viewBox="0 0 24 24" xml:space="preserve" xmlns="http://www.w3.org/2000/svg"><path d="m4.0008 1.9992c-1.6447 0-3 1.3553-3 3v10.001c0 1.6447 1.3553 3 3 3h6.9984v1.9992h-3a1 1 0 0 0-0.99844 1.0008 1 1 0 0 0 0.99844 1.0008h8.0016a1 1 0 0 0 0.99844-1.0008 1 1 0 0 0-0.99844-1.0008h-3v-1.9992h6.9984c1.6447 0 3-1.3553 3-3v-10.001c0-1.6447-1.3553-3-3-3h-15.998zm0 2.0016h15.998c0.5713 0 1.0008 0.42714 1.0008 0.99844v10.001c0 0.5713-0.42948 1.0008-1.0008 1.0008h-7.9992-7.9992c-0.5713 0-1.0008-0.42948-1.0008-1.0008v-10.001c0-0.5713 0.42948-0.99844 1.0008-0.99844z" fill="#000" stroke="none"/></svg>
