<svg class="feather feather-home" width="16" height="16" fill="none" stroke="currentColor" stroke-linecap="round" stroke-linejoin="round" stroke-width="2" version="1.1" viewBox="0 0 24 24" xmlns="http://www.w3.org/2000/svg">
 <path d="m12 1.002a1.0001 1.0001 0 0 0-0.6123 0.20801l-9 7.002a1.0001 1.0001 0 0 0-0.38672 0.78809v11.001c0 1.645 1.355 3 3 3h3.999 6 3.999c1.645 0 3-1.355 3-3v-11.001a1.0001 1.0001 0 0 0-0.38672-0.78809l-9-7.002a1.0001 1.0001 0 0 0-0.6123-0.20801zm0 2.2646 8.001 6.2227v10.512c0 0.56413-0.43782 0.99902-1.002 0.99902h-3v-9a1.0001 1.0001 0 0 0-0.99902-0.99902h-6a1.0001 1.0001 0 0 0-0.99902 0.99902v9h-3c-0.56413 0-1.002-0.43489-1.002-0.99902v-10.512l8.001-6.2227zm-2.001 9.7324h4.002v8.001h-4.002v-8.001z" fill="#000" stroke="none"/>
</svg>
